<svg id="SvgjsSvg1842" width="1284.862548828125" height="842.887508392334" xmlns="http://www.w3.org/2000/svg" version="1.1" xmlns:xlink="http://www.w3.org/1999/xlink" xmlns:svgjs="http://svgjs.com/svgjs"><defs id="SvgjsDefs1843"><marker id="SvgjsMarker1875" markerWidth="14" markerHeight="10" refX="10" refY="5" viewBox="0 0 14 10" orient="auto" markerUnits="userSpaceOnUse" stroke-dasharray="0,0"><path id="SvgjsPath1876" d="M0,0 L14,5 L0,10 L0,0" fill="#000000" stroke="#000000" stroke-width="1"></path></marker><marker id="SvgjsMarker1910" markerWidth="14" markerHeight="10" refX="10" refY="5" viewBox="0 0 14 10" orient="auto" markerUnits="userSpaceOnUse" stroke-dasharray="0,0"><path id="SvgjsPath1911" d="M0,0 L14,5 L0,10 L0,0" fill="#323232" stroke="#323232" stroke-width="1"></path></marker><marker id="SvgjsMarker1930" markerWidth="14" markerHeight="10" refX="10" refY="5" viewBox="0 0 14 10" orient="auto" markerUnits="userSpaceOnUse" stroke-dasharray="0,0"><path id="SvgjsPath1931" d="M0,0 L14,5 L0,10 L0,0" fill="#323232" stroke="#323232" stroke-width="1"></path></marker><marker id="SvgjsMarker1944" markerWidth="16" markerHeight="16" refX="11" refY="8" viewBox="0 0 16 16" orient="auto" markerUnits="userSpaceOnUse" stroke-dasharray="0,0"><path id="SvgjsPath1945" d="M0,0 L10,8 L0,16" fill="none" stroke="#323232" stroke-width="2"></path></marker><marker id="SvgjsMarker1958" markerWidth="14" markerHeight="10" refX="10" refY="5" viewBox="0 0 14 10" orient="auto" markerUnits="userSpaceOnUse" stroke-dasharray="0,0"><path id="SvgjsPath1959" d="M0,0 L14,5 L0,10 L0,0" fill="#323232" stroke="#323232" stroke-width="1"></path></marker><marker id="SvgjsMarker1970" markerWidth="14" markerHeight="10" refX="10" refY="5" viewBox="0 0 14 10" orient="auto" markerUnits="userSpaceOnUse" stroke-dasharray="0,0"><path id="SvgjsPath1971" d="M0,0 L14,5 L0,10 L0,0" fill="#323232" stroke="#323232" stroke-width="1"></path></marker><marker id="SvgjsMarker1980" markerWidth="14" markerHeight="10" refX="10" refY="5" viewBox="0 0 14 10" orient="auto" markerUnits="userSpaceOnUse" stroke-dasharray="0,0"><path id="SvgjsPath1981" d="M0,0 L14,5 L0,10 L0,0" fill="#323232" stroke="#323232" stroke-width="1"></path></marker><marker id="SvgjsMarker1992" markerWidth="16" markerHeight="16" refX="11" refY="8" viewBox="0 0 16 16" orient="auto" markerUnits="userSpaceOnUse" stroke-dasharray="0,0"><path id="SvgjsPath1993" d="M0,0 L10,8 L0,16" fill="none" stroke="#323232" stroke-width="2"></path></marker><marker id="SvgjsMarker2004" markerWidth="14" markerHeight="10" refX="10" refY="5" viewBox="0 0 14 10" orient="auto" markerUnits="userSpaceOnUse" stroke-dasharray="0,0"><path id="SvgjsPath2005" d="M0,0 L14,5 L0,10 L0,0" fill="#323232" stroke="#323232" stroke-width="1"></path></marker><marker id="SvgjsMarker2016" markerWidth="16" markerHeight="16" refX="11" refY="8" viewBox="0 0 16 16" orient="auto" markerUnits="userSpaceOnUse" stroke-dasharray="0,0"><path id="SvgjsPath2017" d="M0,0 L10,8 L0,16" fill="none" stroke="#323232" stroke-width="2"></path></marker><marker id="SvgjsMarker2030" markerWidth="14" markerHeight="10" refX="10" refY="5" viewBox="0 0 14 10" orient="auto" markerUnits="userSpaceOnUse" stroke-dasharray="0,0"><path id="SvgjsPath2031" d="M0,0 L14,5 L0,10 L0,0" fill="#323232" stroke="#323232" stroke-width="1"></path></marker></defs><g id="SvgjsG1844"><path id="SvgjsPath1845" d="M588.6125068664551 667.8000164031982L588.6125068664551 740.3000164031982L588.6125068664551 740.3000164031982L588.6125068664551 812.8000164031982" stroke-dasharray="3,3" stroke="#323232" stroke-width="2" fill="none"></path></g><g id="SvgjsG1846"><path id="SvgjsPath1847" d="M1085.612506866455 670.8000164031982L1085.612506866455 743.3000164031982L1085.612506866455 743.3000164031982L1085.612506866455 815.8000164031982" stroke-dasharray="3,3" stroke="#323232" stroke-width="2" fill="none"></path></g><g id="SvgjsG1848"><path id="SvgjsPath1849" d="M835.6125068664551 658.8000164031982L835.6125068664551 731.3000164031982L835.6125068664551 731.3000164031982L835.6125068664551 803.8000164031982" stroke-dasharray="3,3" stroke="#323232" stroke-width="2" fill="none"></path></g><g id="SvgjsG1850" transform="translate(267.4113297114817,114.19534725688936)"><path id="SvgjsPath1851" d="M 60.739647625624364 30L 60.739647625624364 554.804650835762" stroke-dasharray="3,4" stroke="rgba(0,0,0,1)" stroke-width="2" fill="none"></path><path id="SvgjsPath1852" d="M 0 0L 121.47929525124873 0L 121.47929525124873 30L 0 30Z" stroke="rgba(0,0,0,1)" stroke-width="2" fill-opacity="1" fill="#ffffcc"></path><g id="SvgjsG1853"><text id="SvgjsText1854" font-family="微软雅黑" text-anchor="middle" font-size="13px" width="102px" fill="#323232" font-weight="700" align="middle" lineHeight="125%" anchor="middle" family="微软雅黑" size="13px" weight="700" font-style="" opacity="1" y="4.375" transform="rotate(0)"><tspan id="SvgjsTspan1855" dy="16" x="61"><tspan id="SvgjsTspan1856" style="text-decoration:;">nova-api</tspan></tspan></text></g></g><g id="SvgjsG1857" transform="translate(530.7479874243902,114.1953472568893)"><path id="SvgjsPath1858" d="M 57.8285006459738 30L 57.8285006459738 554.8046508357621" stroke-dasharray="3,4" stroke="rgba(0,0,0,1)" stroke-width="2" fill="none"></path><path id="SvgjsPath1859" d="M 0 0L 115.6570012919476 0L 115.6570012919476 30L 0 30Z" stroke="rgba(0,0,0,1)" stroke-width="2" fill-opacity="1" fill="#ffffcc"></path><g id="SvgjsG1860"><text id="SvgjsText1861" font-family="微软雅黑" text-anchor="middle" font-size="13px" width="96px" fill="#323232" font-weight="700" align="middle" lineHeight="125%" anchor="middle" family="微软雅黑" size="13px" weight="700" font-style="" opacity="1" y="4.375" transform="rotate(0)"><tspan id="SvgjsTspan1862" dy="16" x="58"><tspan id="SvgjsTspan1863" style="text-decoration:;">nova-compute</tspan></tspan></text></g></g><g id="SvgjsG1864" transform="translate(778.6813694464691,114.1953472568893)"><path id="SvgjsPath1865" d="M 57.27368362373741 30L 57.27368362373741 541.7403022587707" stroke-dasharray="3,4" stroke="rgba(0,0,0,1)" stroke-width="2" fill="none"></path><path id="SvgjsPath1866" d="M 0 0L 114.54736724747482 0L 114.54736724747482 30L 0 30Z" stroke="rgba(0,0,0,1)" stroke-width="2" fill-opacity="1" fill="#ffffcc"></path><g id="SvgjsG1867"><text id="SvgjsText1868" font-family="微软雅黑" text-anchor="middle" font-size="13px" width="95px" fill="#323232" font-weight="700" align="middle" lineHeight="125%" anchor="middle" family="微软雅黑" size="13px" weight="700" font-style="" opacity="1" y="-4.125" transform="rotate(0)"><tspan id="SvgjsTspan1869" dy="16" x="57.5"><tspan id="SvgjsTspan1870" style="text-decoration:;">nova-</tspan></tspan><tspan id="SvgjsTspan1871" dy="16" x="57.5"><tspan id="SvgjsTspan1872" style="text-decoration:;">conductor</tspan></tspan></text></g></g><g id="SvgjsG1873"><path id="SvgjsPath1874" d="M106.0124969482422 202.7999973297119L206.90437707539144 202.7999973297119L206.90437707539144 202.7999973297119L308.7962572025407 202.7999973297119" stroke="#000000" stroke-width="2" fill="none" marker-end="url(#SvgjsMarker1875)"></path></g><g id="SvgjsG1877" transform="translate(61.663989178755344,24.999998092651367)"><path id="SvgjsPath1878" d="M 16.058770263407503 7.853277440911391C 16.058770263407503 -2.6177591469704637 32.117540526815006 -2.6177591469704637 32.117540526815006 7.853277440911391C 32.117540526815006 18.324314028793246 16.058770263407503 18.324314028793246 16.058770263407503 7.853277440911391M 24.088155395111254 15.706554881822782L 24.088155395111254 47.11966464546835M 24.088155395111254 47.11966464546835L 4.014692565851876 62.82621952729113M 24.088155395111254 47.11966464546835L 44.16161822437063 62.82621952729113M 0 31.413109763645565L 48.17631079022251 31.413109763645565" stroke="rgba(50,50,50,1)" stroke-width="2" fill-opacity="1" fill="#ffffff"></path><path id="SvgjsPath1879" d="M 0 0L 48.17631079022251 0L 48.17631079022251 62.82621952729113L 0 62.82621952729113Z" stroke="none" fill="none"></path><g id="SvgjsG1880"><text id="SvgjsText1881" font-family="微软雅黑" text-anchor="middle" font-size="13px" width="89px" fill="#323232" font-weight="400" align="middle" lineHeight="125%" anchor="middle" family="微软雅黑" size="13px" weight="400" font-style="" opacity="1" y="67.20121952729113" transform="rotate(0)"></text></g></g><g id="SvgjsG1882" transform="translate(25.012496948242188,114.19534725688936)"><path id="SvgjsPath1883" d="M 60.739647625624364 30L 60.739647625624364 554.804650835762" stroke-dasharray="3,4" stroke="rgba(0,0,0,1)" stroke-width="2" fill="none"></path><path id="SvgjsPath1884" d="M 0 0L 121.47929525124873 0L 121.47929525124873 30L 0 30Z" stroke="rgba(0,0,0,1)" stroke-width="2" fill-opacity="1" fill="#ffffff"></path><g id="SvgjsG1885"><text id="SvgjsText1886" font-family="微软雅黑" text-anchor="middle" font-size="13px" width="102px" fill="#323232" font-weight="700" align="middle" lineHeight="125%" anchor="middle" family="微软雅黑" size="13px" weight="700" font-style="" opacity="1" y="4.375" transform="rotate(0)"><tspan id="SvgjsTspan1887" dy="16" x="61"><tspan id="SvgjsTspan1888" style="text-decoration:;">user</tspan></tspan></text></g></g><g id="SvgjsG1889" transform="translate(66.12708982605584,190.89685855074345)"><path id="SvgjsPath1890" d="M 0 4Q 0 0 4 0L 35.25010949562152 0Q 39.25010949562152 0 39.25010949562152 4L 39.25010949562152 161.3031364901501Q 39.25010949562152 165.3031364901501 35.25010949562152 165.3031364901501L 4 165.3031364901501Q 0 165.3031364901501 0 161.3031364901501L 0 4Z" stroke="rgba(153,0,0,1)" stroke-width="2" fill-opacity="1" fill="#ffffff"></path></g><g id="SvgjsG1891" transform="translate(1025.5051174240753,114.1953472568893)"><path id="SvgjsPath1892" d="M 60.739647625624364 30L 60.739647625624364 554.804650835762" stroke-dasharray="3,4" stroke="rgba(0,0,0,1)" stroke-width="2" fill="none"></path><path id="SvgjsPath1893" d="M 0 0L 121.47929525124873 0L 121.47929525124873 30L 0 30Z" stroke="rgba(0,0,0,1)" stroke-width="2" fill-opacity="1" fill="#ffffcc"></path><g id="SvgjsG1894"><text id="SvgjsText1895" font-family="微软雅黑" text-anchor="middle" font-size="13px" width="102px" fill="#323232" font-weight="700" align="middle" lineHeight="125%" anchor="middle" family="微软雅黑" size="13px" weight="700" font-style="" opacity="1" y="4.375" transform="rotate(0)"><tspan id="SvgjsTspan1896" dy="16" x="61"><tspan id="SvgjsTspan1897" style="text-decoration:;">nova-scheduler</tspan></tspan></text></g></g><g id="SvgjsG1898" transform="translate(1064.2725544443601,197.89685855074345)"><path id="SvgjsPath1899" d="M 0 4Q 0 0 4 0L 35.25010949562152 0Q 39.25010949562152 0 39.25010949562152 4L 39.25010949562152 609.3031517489392Q 39.25010949562152 613.3031517489392 35.25010949562152 613.3031517489392L 4 613.3031517489392Q 0 613.3031517489392 0 609.3031517489392L 0 4Z" stroke="rgba(153,0,0,1)" stroke-width="2" fill-opacity="1" fill="#ffffff"></path></g><g id="SvgjsG1900" transform="translate(109.84029996897786,201.19284972520717)"><path id="SvgjsPath1901" d="M 0 0L 176 0L 176 55L 0 55Z" stroke="none" fill="none"></path><g id="SvgjsG1902"><text id="SvgjsText1903" font-family="微软雅黑" text-anchor="middle" font-size="13px" width="176px" fill="#323232" font-weight="400" align="middle" lineHeight="125%" anchor="middle" family="微软雅黑" size="13px" weight="400" font-style="" opacity="1" y="8.375" transform="rotate(0)"><tspan id="SvgjsTspan1904" dy="16" x="88"><tspan id="SvgjsTspan1905" style="text-decoration:;">用户使用Horizon或CLI发起一</tspan></tspan><tspan id="SvgjsTspan1906" dy="16" x="88"><tspan id="SvgjsTspan1907" style="text-decoration:;">个创建虚机的命令</tspan></tspan></text></g></g><g id="SvgjsG1908"><path id="SvgjsPath1909" d="M349.0124969482422 221.3151194191385L378.0124969482422 221.3151194191385L378.0124969482422 295.53615874096374L351.6124969482422 295.53615874096374" stroke="#323232" stroke-width="2" fill="none" marker-end="url(#SvgjsMarker1910)"></path></g><g id="SvgjsG1912" transform="translate(388.25797807065976,246.80021567929907)"><path id="SvgjsPath1913" d="M 0 0L 129.50903775516485 0L 129.50903775516485 38.80000305175781L 0 38.80000305175781Z" stroke="none" fill="none"></path><g id="SvgjsG1914"><text id="SvgjsText1915" font-family="微软雅黑" text-anchor="start" font-size="13px" width="130px" fill="#323232" font-weight="400" align="middle" lineHeight="125%" anchor="start" family="微软雅黑" size="13px" weight="400" font-style="" opacity="1" y="-32.224998474121094" transform="rotate(0)"><tspan id="SvgjsTspan1916" dy="16" x="0"><tspan id="SvgjsTspan1917" style="text-decoration:;">1.调用create()方法2.</tspan></tspan><tspan id="SvgjsTspan1918" dy="16" x="0"><tspan id="SvgjsTspan1919" style="text-decoration:;">验证用户身份和权限</tspan></tspan><tspan id="SvgjsTspan1920" dy="16" x="0"><tspan id="SvgjsTspan1921" style="text-decoration:;">3.处理入参</tspan></tspan><tspan id="SvgjsTspan1922" dy="16" x="0"><tspan id="SvgjsTspan1923" style="text-decoration:;">4.获取网络和flavor_id</tspan></tspan><tspan id="SvgjsTspan1924" dy="16" x="0"><tspan id="SvgjsTspan1925" style="text-decoration:;">等参数</tspan></tspan><tspan id="SvgjsTspan1926" dy="16" x="0"><tspan id="SvgjsTspan1927" style="text-decoration:;"> </tspan></tspan></text></g></g><g id="SvgjsG1928"><path id="SvgjsPath1929" d="M608.0124969482422 336.8534619538118L637.0124969482422 336.8534619538118L637.0124969482422 381.26955867177435L610.6124969482422 381.26955867177435" stroke="#323232" stroke-width="2" fill="none" marker-end="url(#SvgjsMarker1930)"></path></g><g id="SvgjsG1932" transform="translate(644.3859603149035,340.46571826174073)"><path id="SvgjsPath1933" d="M 0 0L 170.60750823190438 0L 170.60750823190438 33.19956024906787L 0 33.19956024906787Z" stroke="none" fill="none"></path><g id="SvgjsG1934"><text id="SvgjsText1935" font-family="微软雅黑" text-anchor="start" font-size="13px" width="171px" fill="#323232" font-weight="400" align="middle" lineHeight="125%" anchor="start" family="微软雅黑" size="13px" weight="400" font-style="" opacity="1" y="-10.525219875466064" transform="rotate(0)"><tspan id="SvgjsTspan1936" dy="16" x="0"><tspan id="SvgjsTspan1937" style="text-decoration:;">1.参数校验</tspan></tspan><tspan id="SvgjsTspan1938" dy="16" x="0"><tspan id="SvgjsTspan1939" style="text-decoration:;">2.获取image，虚机等信息。</tspan></tspan><tspan id="SvgjsTspan1940" dy="16" x="0"><tspan id="SvgjsTspan1941" style="text-decoration:;">3.构造调度时使用的过滤器</tspan></tspan></text></g></g><g id="SvgjsG1942"><path id="SvgjsPath1943" d="M607.8125 408.99999809265137L711.3125 408.99999809265137L711.3125 408.99999809265137L813.8125 408.99999809265137" stroke="#323232" stroke-width="2" fill="none" marker-end="url(#SvgjsMarker1944)"></path></g><g id="SvgjsG1946" transform="translate(608.9934685468079,419.1999988555908)"><path id="SvgjsPath1947" d="M 0 0L 206 0L 206 38L 0 38Z" stroke="none" fill="none"></path><g id="SvgjsG1948"><text id="SvgjsText1949" font-family="微软雅黑" text-anchor="middle" font-size="13px" width="206px" fill="#323232" font-weight="400" align="middle" lineHeight="125%" anchor="middle" family="微软雅黑" size="13px" weight="400" font-style="" opacity="1" y="-8.125" transform="rotate(0)"><tspan id="SvgjsTspan1950" dy="16" x="103"><tspan id="SvgjsTspan1951" style="text-decoration:;">通过RPC异步地调用nova-</tspan></tspan><tspan id="SvgjsTspan1952" dy="16" x="103"><tspan id="SvgjsTspan1953" style="text-decoration:;">conductor中的</tspan></tspan><tspan id="SvgjsTspan1954" dy="16" x="103"><tspan id="SvgjsTspan1955" style="text-decoration:;">schedule_and_build_instances</tspan></tspan></text></g></g><g id="SvgjsG1956"><path id="SvgjsPath1957" d="M348.8125 324.1999988555908L458.0999711002157 324.1999988555908L458.0999711002157 324.1999988555908L568.3874422004315 324.1999988555908" stroke="#323232" stroke-width="2" fill="none" marker-end="url(#SvgjsMarker1958)"></path></g><g id="SvgjsG1960" transform="translate(369.21690444929686,329.6652785108086)"><path id="SvgjsPath1961" d="M 0 0L 178 0L 178 40L 0 40Z" stroke="none" fill="none"></path><g id="SvgjsG1962"><text id="SvgjsText1963" font-family="微软雅黑" text-anchor="middle" font-size="13px" width="178px" fill="#323232" font-weight="400" align="middle" lineHeight="125%" anchor="middle" family="微软雅黑" size="13px" weight="400" font-style="" opacity="1" y="0.875" transform="rotate(0)"><tspan id="SvgjsTspan1964" dy="16" x="89"><tspan id="SvgjsTspan1965" style="text-decoration:;">直接调用compute/api中</tspan></tspan><tspan id="SvgjsTspan1966" dy="16" x="89"><tspan id="SvgjsTspan1967" style="text-decoration:;">create方法</tspan></tspan></text></g></g><g id="SvgjsG1968"><path id="SvgjsPath1969" d="M854.8125 428.99999809265137L959.3125 428.99999809265137L959.3125 428.99999809265137L1061.2125 428.99999809265137" stroke="#323232" stroke-width="2" fill="none" marker-end="url(#SvgjsMarker1970)"></path></g><g id="SvgjsG1972" transform="translate(885.8669270590098,423.99999809265137)"><path id="SvgjsPath1973" d="M 0 0L 147 0L 147 39L 0 39Z" stroke="none" fill="none"></path><g id="SvgjsG1974"><text id="SvgjsText1975" font-family="微软雅黑" text-anchor="middle" font-size="13px" width="147px" fill="#323232" font-weight="400" align="middle" lineHeight="125%" anchor="middle" family="微软雅黑" size="13px" weight="400" font-style="" opacity="1" y="8.875" transform="rotate(0)"><tspan id="SvgjsTspan1976" dy="16" x="73.5"><tspan id="SvgjsTspan1977" style="text-decoration:;">_schedule_instances</tspan></tspan></text></g></g><g id="SvgjsG1978"><path id="SvgjsPath1979" d="M1104.0372659730688 436.99999809265137L1133.0372659730688 436.99999809265137L1133.0372659730688 472.99999809265137L1106.6372659730687 472.99999809265137" stroke="#323232" stroke-width="2" fill="none" marker-end="url(#SvgjsMarker1980)"></path></g><g id="SvgjsG1982" transform="translate(1139.8640343205088,436.49999809265137)"><path id="SvgjsPath1983" d="M 0 0L 120 0L 120 40L 0 40Z" stroke="none" fill="none"></path><g id="SvgjsG1984"><text id="SvgjsText1985" font-family="微软雅黑" text-anchor="start" font-size="13px" width="120px" fill="#323232" font-weight="400" align="middle" lineHeight="125%" anchor="start" family="微软雅黑" size="13px" weight="400" font-style="" opacity="1" y="0.875" transform="rotate(0)"><tspan id="SvgjsTspan1986" dy="16" x="0"><tspan id="SvgjsTspan1987" style="text-decoration:;">1.过滤</tspan></tspan><tspan id="SvgjsTspan1988" dy="16" x="0"><tspan id="SvgjsTspan1989" style="text-decoration:;">2.按权重排名</tspan></tspan></text></g></g><g id="SvgjsG1990"><path id="SvgjsPath1991" d="M1063.8125 512.1999950408936L959.3125 512.1999950408936L959.3125 512.1999950408936L855.8125 512.1999950408936" stroke-dasharray="3,3" stroke="#323232" stroke-width="2" fill="none" marker-end="url(#SvgjsMarker1992)"></path></g><g id="SvgjsG1994" transform="translate(899.3669270590099,516.9999980926514)"><path id="SvgjsPath1995" d="M 0 0L 120 0L 120 40L 0 40Z" stroke="none" fill="none"></path><g id="SvgjsG1996"><text id="SvgjsText1997" font-family="微软雅黑" text-anchor="middle" font-size="13px" width="120px" fill="#323232" font-weight="400" align="middle" lineHeight="125%" anchor="middle" family="微软雅黑" size="13px" weight="400" font-style="" opacity="1" y="0.875" transform="rotate(0)"><tspan id="SvgjsTspan1998" dy="16" x="60"><tspan id="SvgjsTspan1999" style="text-decoration:;">返回调度后得到的虚</tspan></tspan><tspan id="SvgjsTspan2000" dy="16" x="60"><tspan id="SvgjsTspan2001" style="text-decoration:;">机的Host_id</tspan></tspan></text></g></g><g id="SvgjsG2002"><path id="SvgjsPath2003" d="M854.6125068664551 578.3769137138315L883.6125068664551 578.3769137138315L883.6125068664551 610.8952975890691L857.2125068664551 610.8952975890691" stroke="#323232" stroke-width="2" fill="none" marker-end="url(#SvgjsMarker2004)"></path></g><g id="SvgjsG2006" transform="translate(890.4311840638329,567.9356495156601)"><path id="SvgjsPath2007" d="M 0 0L 120 0L 120 40L 0 40Z" stroke="none" fill="none"></path><g id="SvgjsG2008"><text id="SvgjsText2009" font-family="微软雅黑" text-anchor="middle" font-size="13px" width="120px" fill="#323232" font-weight="400" align="middle" lineHeight="125%" anchor="middle" family="微软雅黑" size="13px" weight="400" font-style="" opacity="1" y="0.875" transform="rotate(0)"><tspan id="SvgjsTspan2010" dy="16" x="60"><tspan id="SvgjsTspan2011" style="text-decoration:;">与DB交互申请虚机</tspan></tspan><tspan id="SvgjsTspan2012" dy="16" x="60"><tspan id="SvgjsTspan2013" style="text-decoration:;">所需的各项资源</tspan></tspan></text></g></g><g id="SvgjsG2014"><path id="SvgjsPath2015" d="M814.9934685468079 622.1999950408936L710.902984273404 622.1999950408936L710.902984273404 622.1999950408936L608.8125 622.1999950408936" stroke="#323232" stroke-width="2" fill="none" marker-end="url(#SvgjsMarker2016)"></path></g><g id="SvgjsG2018" transform="translate(620.5934784650208,632.9999904632568)"><path id="SvgjsPath2019" d="M 0 0L 186.3999900817871 0L 186.3999900817871 36.00000762939453L 0 36.00000762939453Z" stroke="none" fill="none"></path><g id="SvgjsG2020"><text id="SvgjsText2021" font-family="微软雅黑" text-anchor="middle" font-size="13px" width="187px" fill="#323232" font-weight="400" align="middle" lineHeight="125%" anchor="middle" family="微软雅黑" size="13px" weight="400" font-style="" opacity="1" y="-9.124996185302734" transform="rotate(0)"><tspan id="SvgjsTspan2022" dy="16" x="93.5"><tspan id="SvgjsTspan2023" style="text-decoration:;">通过RPC异步地调用nova-</tspan></tspan><tspan id="SvgjsTspan2024" dy="16" x="93.5"><tspan id="SvgjsTspan2025" style="text-decoration:;">compute中的</tspan></tspan><tspan id="SvgjsTspan2026" dy="16" x="93.5"><tspan id="SvgjsTspan2027" style="text-decoration:;">build_and_run_instance方法</tspan></tspan></text></g></g><g id="SvgjsG2028"><path id="SvgjsPath2029" d="M608.0124969482422 704.5774215389447L637.0124969482422 704.5774215389447L637.0124969482422 754.1581806659726L610.6124969482422 754.1581806659726" stroke="#323232" stroke-width="2" fill="none" marker-end="url(#SvgjsMarker2030)"></path></g><g id="SvgjsG2032" transform="translate(646.4049887163378,703.600019454956)"><path id="SvgjsPath2033" d="M 0 0L 160.58847983047008 0L 160.58847983047008 40.19999694824219L 0 40.19999694824219Z" stroke="none" fill="none"></path><g id="SvgjsG2034"><text id="SvgjsText2035" font-family="微软雅黑" text-anchor="start" font-size="13px" width="161px" fill="#323232" font-weight="400" align="middle" lineHeight="125%" anchor="start" family="微软雅黑" size="13px" weight="400" font-style="" opacity="1" y="-7.025001525878906" transform="rotate(0)"><tspan id="SvgjsTspan2036" dy="16" x="0"><tspan id="SvgjsTspan2037" style="text-decoration:;">1.更新和保存虚机状态</tspan></tspan><tspan id="SvgjsTspan2038" dy="16" x="0"><tspan id="SvgjsTspan2039" style="text-decoration:;">2.调用driver.py中的spawn</tspan></tspan><tspan id="SvgjsTspan2040" dy="16" x="0"><tspan id="SvgjsTspan2041" style="text-decoration:;">方法创建虚机</tspan></tspan></text></g></g><g id="SvgjsG2042" transform="translate(814.9934685468079,190.89685855074345)"><path id="SvgjsPath2043" d="M 0 4Q 0 0 4 0L 35.25010949562152 0Q 39.25010949562152 0 39.25010949562152 4L 39.25010949562152 623.3031517489392Q 39.25010949562152 627.3031517489392 35.25010949562152 627.3031517489392L 4 627.3031517489392Q 0 627.3031517489392 0 623.3031517489392L 0 4Z" stroke="rgba(153,0,0,1)" stroke-width="2" fill-opacity="1" fill="#ffffff"></path></g><g id="SvgjsG2044"><path id="SvgjsPath2045" d="M85.8125 808.2000102996826L85.8125 739.100004196167L85.8125 739.100004196167L85.8125 669.9999980926514" stroke-dasharray="3,3" stroke="#323232" stroke-width="2" fill="none"></path></g><g id="SvgjsG2046"><path id="SvgjsPath2047" d="M327.6125068664551 669.8000164031982L327.6125068664551 742.3000164031982L327.6125068664551 742.3000164031982L327.6125068664551 814.8000164031982" stroke-dasharray="3,3" stroke="#323232" stroke-width="2" fill="none"></path></g><g id="SvgjsG2048" transform="translate(308.7962572025407,190.89685855074345)"><path id="SvgjsPath2049" d="M 0 4Q 0 0 4 0L 35.25010949562152 0Q 39.25010949562152 0 39.25010949562152 4L 39.25010949562152 623.3031517489392Q 39.25010949562152 627.3031517489392 35.25010949562152 627.3031517489392L 4 627.3031517489392Q 0 627.3031517489392 0 623.3031517489392L 0 4Z" stroke="rgba(153,0,0,1)" stroke-width="2" fill-opacity="1" fill="#ffffff"></path></g><g id="SvgjsG2050" transform="translate(568.3874422004315,190.89685855074345)"><path id="SvgjsPath2051" d="M 0 4Q 0 0 4 0L 35.25010949562152 0Q 39.25010949562152 0 39.25010949562152 4L 39.25010949562152 623.3031517489392Q 39.25010949562152 627.3031517489392 35.25010949562152 627.3031517489392L 4 627.3031517489392Q 0 627.3031517489392 0 623.3031517489392L 0 4Z" stroke="rgba(153,0,0,1)" stroke-width="2" fill-opacity="1" fill="#ffffff"></path></g></svg>