<svg id="SvgjsSvg1424" width="1284.862548828125" height="840.8000106811523" xmlns="http://www.w3.org/2000/svg" version="1.1" xmlns:xlink="http://www.w3.org/1999/xlink" xmlns:svgjs="http://svgjs.com/svgjs"><defs id="SvgjsDefs1425"><marker id="SvgjsMarker1459" markerWidth="14" markerHeight="10" refX="10" refY="5" viewBox="0 0 14 10" orient="auto" markerUnits="userSpaceOnUse" stroke-dasharray="0,0"><path id="SvgjsPath1460" d="M0,0 L14,5 L0,10 L0,0" fill="#000000" stroke="#000000" stroke-width="1"></path></marker><marker id="SvgjsMarker1494" markerWidth="14" markerHeight="10" refX="10" refY="5" viewBox="0 0 14 10" orient="auto" markerUnits="userSpaceOnUse" stroke-dasharray="0,0"><path id="SvgjsPath1495" d="M0,0 L14,5 L0,10 L0,0" fill="#323232" stroke="#323232" stroke-width="1"></path></marker><marker id="SvgjsMarker1514" markerWidth="14" markerHeight="10" refX="10" refY="5" viewBox="0 0 14 10" orient="auto" markerUnits="userSpaceOnUse" stroke-dasharray="0,0"><path id="SvgjsPath1515" d="M0,0 L14,5 L0,10 L0,0" fill="#323232" stroke="#323232" stroke-width="1"></path></marker><marker id="SvgjsMarker1528" markerWidth="16" markerHeight="16" refX="11" refY="8" viewBox="0 0 16 16" orient="auto" markerUnits="userSpaceOnUse" stroke-dasharray="0,0"><path id="SvgjsPath1529" d="M0,0 L10,8 L0,16" fill="none" stroke="#323232" stroke-width="2"></path></marker><marker id="SvgjsMarker1542" markerWidth="14" markerHeight="10" refX="10" refY="5" viewBox="0 0 14 10" orient="auto" markerUnits="userSpaceOnUse" stroke-dasharray="0,0"><path id="SvgjsPath1543" d="M0,0 L14,5 L0,10 L0,0" fill="#323232" stroke="#323232" stroke-width="1"></path></marker><marker id="SvgjsMarker1554" markerWidth="14" markerHeight="10" refX="10" refY="5" viewBox="0 0 14 10" orient="auto" markerUnits="userSpaceOnUse" stroke-dasharray="0,0"><path id="SvgjsPath1555" d="M0,0 L14,5 L0,10 L0,0" fill="#323232" stroke="#323232" stroke-width="1"></path></marker><marker id="SvgjsMarker1564" markerWidth="14" markerHeight="10" refX="10" refY="5" viewBox="0 0 14 10" orient="auto" markerUnits="userSpaceOnUse" stroke-dasharray="0,0"><path id="SvgjsPath1565" d="M0,0 L14,5 L0,10 L0,0" fill="#323232" stroke="#323232" stroke-width="1"></path></marker><marker id="SvgjsMarker1576" markerWidth="16" markerHeight="16" refX="11" refY="8" viewBox="0 0 16 16" orient="auto" markerUnits="userSpaceOnUse" stroke-dasharray="0,0"><path id="SvgjsPath1577" d="M0,0 L10,8 L0,16" fill="none" stroke="#323232" stroke-width="2"></path></marker><marker id="SvgjsMarker1588" markerWidth="14" markerHeight="10" refX="10" refY="5" viewBox="0 0 14 10" orient="auto" markerUnits="userSpaceOnUse" stroke-dasharray="0,0"><path id="SvgjsPath1589" d="M0,0 L14,5 L0,10 L0,0" fill="#323232" stroke="#323232" stroke-width="1"></path></marker><marker id="SvgjsMarker1600" markerWidth="16" markerHeight="16" refX="11" refY="8" viewBox="0 0 16 16" orient="auto" markerUnits="userSpaceOnUse" stroke-dasharray="0,0"><path id="SvgjsPath1601" d="M0,0 L10,8 L0,16" fill="none" stroke="#323232" stroke-width="2"></path></marker><marker id="SvgjsMarker1616" markerWidth="14" markerHeight="10" refX="10" refY="5" viewBox="0 0 14 10" orient="auto" markerUnits="userSpaceOnUse" stroke-dasharray="0,0"><path id="SvgjsPath1617" d="M0,0 L14,5 L0,10 L0,0" fill="#323232" stroke="#323232" stroke-width="1"></path></marker></defs><g id="SvgjsG1426"><path id="SvgjsPath1427" d="M588.6125068664551 667.8000164031982L588.6125068664551 740.3000164031982L588.6125068664551 740.3000164031982L588.6125068664551 812.8000164031982" stroke-dasharray="3,3" stroke="#323232" stroke-width="2" fill="none"></path></g><g id="SvgjsG1428"><path id="SvgjsPath1429" d="M1085.612506866455 670.8000164031982L1085.612506866455 743.3000164031982L1085.612506866455 743.3000164031982L1085.612506866455 815.8000164031982" stroke-dasharray="3,3" stroke="#323232" stroke-width="2" fill="none"></path></g><g id="SvgjsG1430"><path id="SvgjsPath1431" d="M835.6125068664551 658.8000164031982L835.6125068664551 731.3000164031982L835.6125068664551 731.3000164031982L835.6125068664551 803.8000164031982" stroke-dasharray="3,3" stroke="#323232" stroke-width="2" fill="none"></path></g><g id="SvgjsG1432"><path id="SvgjsPath1433" d="M327.6125068664551 669.8000164031982L327.6125068664551 742.3000164031982L327.6125068664551 742.3000164031982L327.6125068664551 814.8000164031982" stroke-dasharray="3,3" stroke="#323232" stroke-width="2" fill="none"></path></g><g id="SvgjsG1434" transform="translate(267.4113297114817,114.19534725688936)"><path id="SvgjsPath1435" d="M 60.739647625624364 30L 60.739647625624364 554.804650835762" stroke-dasharray="3,4" stroke="rgba(0,0,0,1)" stroke-width="2" fill="none"></path><path id="SvgjsPath1436" d="M 0 0L 121.47929525124873 0L 121.47929525124873 30L 0 30Z" stroke="rgba(0,0,0,1)" stroke-width="2" fill-opacity="1" fill="#ffffcc"></path><g id="SvgjsG1437"><text id="SvgjsText1438" font-family="微软雅黑" text-anchor="middle" font-size="13px" width="102px" fill="#323232" font-weight="700" align="middle" lineHeight="125%" anchor="middle" family="微软雅黑" size="13px" weight="700" font-style="" opacity="1" y="4.375" transform="rotate(0)"><tspan id="SvgjsTspan1439" dy="16" x="61"><tspan id="SvgjsTspan1440" style="text-decoration:;">nova-api</tspan></tspan></text></g></g><g id="SvgjsG1441" transform="translate(530.7479874243902,114.1953472568893)"><path id="SvgjsPath1442" d="M 57.8285006459738 30L 57.8285006459738 554.8046508357621" stroke-dasharray="3,4" stroke="rgba(0,0,0,1)" stroke-width="2" fill="none"></path><path id="SvgjsPath1443" d="M 0 0L 115.6570012919476 0L 115.6570012919476 30L 0 30Z" stroke="rgba(0,0,0,1)" stroke-width="2" fill-opacity="1" fill="#ffffcc"></path><g id="SvgjsG1444"><text id="SvgjsText1445" font-family="微软雅黑" text-anchor="middle" font-size="13px" width="96px" fill="#323232" font-weight="700" align="middle" lineHeight="125%" anchor="middle" family="微软雅黑" size="13px" weight="700" font-style="" opacity="1" y="4.375" transform="rotate(0)"><tspan id="SvgjsTspan1446" dy="16" x="58"><tspan id="SvgjsTspan1447" style="text-decoration:;">nova-compute</tspan></tspan></text></g></g><g id="SvgjsG1448" transform="translate(778.6813694464691,114.1953472568893)"><path id="SvgjsPath1449" d="M 57.27368362373741 30L 57.27368362373741 541.7403022587707" stroke-dasharray="3,4" stroke="rgba(0,0,0,1)" stroke-width="2" fill="none"></path><path id="SvgjsPath1450" d="M 0 0L 114.54736724747482 0L 114.54736724747482 30L 0 30Z" stroke="rgba(0,0,0,1)" stroke-width="2" fill-opacity="1" fill="#ffffcc"></path><g id="SvgjsG1451"><text id="SvgjsText1452" font-family="微软雅黑" text-anchor="middle" font-size="13px" width="95px" fill="#323232" font-weight="700" align="middle" lineHeight="125%" anchor="middle" family="微软雅黑" size="13px" weight="700" font-style="" opacity="1" y="-4.125" transform="rotate(0)"><tspan id="SvgjsTspan1453" dy="16" x="57.5"><tspan id="SvgjsTspan1454" style="text-decoration:;">nova-</tspan></tspan><tspan id="SvgjsTspan1455" dy="16" x="57.5"><tspan id="SvgjsTspan1456" style="text-decoration:;">conductor</tspan></tspan></text></g></g><g id="SvgjsG1457"><path id="SvgjsPath1458" d="M106.0124969482422 202.7999973297119L206.90437707539144 202.7999973297119L206.90437707539144 202.7999973297119L308.7962572025407 202.7999973297119" stroke="#000000" stroke-width="2" fill="none" marker-end="url(#SvgjsMarker1459)"></path></g><g id="SvgjsG1461" transform="translate(61.663989178755344,24.999998092651367)"><path id="SvgjsPath1462" d="M 16.058770263407503 7.853277440911391C 16.058770263407503 -2.6177591469704637 32.117540526815006 -2.6177591469704637 32.117540526815006 7.853277440911391C 32.117540526815006 18.324314028793246 16.058770263407503 18.324314028793246 16.058770263407503 7.853277440911391M 24.088155395111254 15.706554881822782L 24.088155395111254 47.11966464546835M 24.088155395111254 47.11966464546835L 4.014692565851876 62.82621952729113M 24.088155395111254 47.11966464546835L 44.16161822437063 62.82621952729113M 0 31.413109763645565L 48.17631079022251 31.413109763645565" stroke="rgba(50,50,50,1)" stroke-width="2" fill-opacity="1" fill="#ffffff"></path><path id="SvgjsPath1463" d="M 0 0L 48.17631079022251 0L 48.17631079022251 62.82621952729113L 0 62.82621952729113Z" stroke="none" fill="none"></path><g id="SvgjsG1464"><text id="SvgjsText1465" font-family="微软雅黑" text-anchor="middle" font-size="13px" width="89px" fill="#323232" font-weight="400" align="middle" lineHeight="125%" anchor="middle" family="微软雅黑" size="13px" weight="400" font-style="" opacity="1" y="67.20121952729113" transform="rotate(0)"></text></g></g><g id="SvgjsG1466" transform="translate(25.012496948242188,114.19534725688936)"><path id="SvgjsPath1467" d="M 60.739647625624364 30L 60.739647625624364 554.804650835762" stroke-dasharray="3,4" stroke="rgba(0,0,0,1)" stroke-width="2" fill="none"></path><path id="SvgjsPath1468" d="M 0 0L 121.47929525124873 0L 121.47929525124873 30L 0 30Z" stroke="rgba(0,0,0,1)" stroke-width="2" fill-opacity="1" fill="#ffffff"></path><g id="SvgjsG1469"><text id="SvgjsText1470" font-family="微软雅黑" text-anchor="middle" font-size="13px" width="102px" fill="#323232" font-weight="700" align="middle" lineHeight="125%" anchor="middle" family="微软雅黑" size="13px" weight="700" font-style="" opacity="1" y="4.375" transform="rotate(0)"><tspan id="SvgjsTspan1471" dy="16" x="61"><tspan id="SvgjsTspan1472" style="text-decoration:;">user</tspan></tspan></text></g></g><g id="SvgjsG1473" transform="translate(66.12708982605584,190.89685855074345)"><path id="SvgjsPath1474" d="M 0 4Q 0 0 4 0L 35.25010949562152 0Q 39.25010949562152 0 39.25010949562152 4L 39.25010949562152 161.3031364901501Q 39.25010949562152 165.3031364901501 35.25010949562152 165.3031364901501L 4 165.3031364901501Q 0 165.3031364901501 0 161.3031364901501L 0 4Z" stroke="rgba(153,0,0,1)" stroke-width="2" fill-opacity="1" fill="#ffffff"></path></g><g id="SvgjsG1475" transform="translate(1025.5051174240753,114.1953472568893)"><path id="SvgjsPath1476" d="M 60.739647625624364 30L 60.739647625624364 554.804650835762" stroke-dasharray="3,4" stroke="rgba(0,0,0,1)" stroke-width="2" fill="none"></path><path id="SvgjsPath1477" d="M 0 0L 121.47929525124873 0L 121.47929525124873 30L 0 30Z" stroke="rgba(0,0,0,1)" stroke-width="2" fill-opacity="1" fill="#ffffcc"></path><g id="SvgjsG1478"><text id="SvgjsText1479" font-family="微软雅黑" text-anchor="middle" font-size="13px" width="102px" fill="#323232" font-weight="700" align="middle" lineHeight="125%" anchor="middle" family="微软雅黑" size="13px" weight="700" font-style="" opacity="1" y="4.375" transform="rotate(0)"><tspan id="SvgjsTspan1480" dy="16" x="61"><tspan id="SvgjsTspan1481" style="text-decoration:;">nova-scheduler</tspan></tspan></text></g></g><g id="SvgjsG1482" transform="translate(1064.2725544443601,197.89685855074345)"><path id="SvgjsPath1483" d="M 0 4Q 0 0 4 0L 35.25010949562152 0Q 39.25010949562152 0 39.25010949562152 4L 39.25010949562152 609.3031517489392Q 39.25010949562152 613.3031517489392 35.25010949562152 613.3031517489392L 4 613.3031517489392Q 0 613.3031517489392 0 609.3031517489392L 0 4Z" stroke="rgba(153,0,0,1)" stroke-width="2" fill-opacity="1" fill="#ffffff"></path></g><g id="SvgjsG1484" transform="translate(109.84029996897786,201.19284972520717)"><path id="SvgjsPath1485" d="M 0 0L 176 0L 176 55L 0 55Z" stroke="none" fill="none"></path><g id="SvgjsG1486"><text id="SvgjsText1487" font-family="微软雅黑" text-anchor="middle" font-size="13px" width="176px" fill="#323232" font-weight="400" align="middle" lineHeight="125%" anchor="middle" family="微软雅黑" size="13px" weight="400" font-style="" opacity="1" y="8.375" transform="rotate(0)"><tspan id="SvgjsTspan1488" dy="16" x="88"><tspan id="SvgjsTspan1489" style="text-decoration:;">用户使用Horizon或CLI发起一</tspan></tspan><tspan id="SvgjsTspan1490" dy="16" x="88"><tspan id="SvgjsTspan1491" style="text-decoration:;">个创建虚机的命令</tspan></tspan></text></g></g><g id="SvgjsG1492"><path id="SvgjsPath1493" d="M349.0124969482422 220.34530886474903L378.0124969482422 220.34530886474903L378.0124969482422 292.19999504089355L351.6124969482422 292.19999504089355" stroke="#323232" stroke-width="2" fill="none" marker-end="url(#SvgjsMarker1494)"></path></g><g id="SvgjsG1496" transform="translate(388.25797807065976,246.80021567929907)"><path id="SvgjsPath1497" d="M 0 0L 129.50903775516485 0L 129.50903775516485 38.80000305175781L 0 38.80000305175781Z" stroke="none" fill="none"></path><g id="SvgjsG1498"><text id="SvgjsText1499" font-family="微软雅黑" text-anchor="start" font-size="13px" width="130px" fill="#323232" font-weight="400" align="middle" lineHeight="125%" anchor="start" family="微软雅黑" size="13px" weight="400" font-style="" opacity="1" y="-32.224998474121094" transform="rotate(0)"><tspan id="SvgjsTspan1500" dy="16" x="0"><tspan id="SvgjsTspan1501" style="text-decoration:;">1.调用create()方法2.</tspan></tspan><tspan id="SvgjsTspan1502" dy="16" x="0"><tspan id="SvgjsTspan1503" style="text-decoration:;">验证用户身份和权限</tspan></tspan><tspan id="SvgjsTspan1504" dy="16" x="0"><tspan id="SvgjsTspan1505" style="text-decoration:;">3.处理入参</tspan></tspan><tspan id="SvgjsTspan1506" dy="16" x="0"><tspan id="SvgjsTspan1507" style="text-decoration:;">4.获取网络和flavor_id</tspan></tspan><tspan id="SvgjsTspan1508" dy="16" x="0"><tspan id="SvgjsTspan1509" style="text-decoration:;">等参数</tspan></tspan><tspan id="SvgjsTspan1510" dy="16" x="0"><tspan id="SvgjsTspan1511" style="text-decoration:;"> </tspan></tspan></text></g></g><g id="SvgjsG1512"><path id="SvgjsPath1513" d="M608.0124969482422 332.1999988555908L637.0124969482422 332.1999988555908L637.0124969482422 375.1999988555908L610.6124969482422 375.1999988555908" stroke="#323232" stroke-width="2" fill="none" marker-end="url(#SvgjsMarker1514)"></path></g><g id="SvgjsG1516" transform="translate(644.3859603149035,336.46571826174073)"><path id="SvgjsPath1517" d="M 0 0L 170.60750823190438 0L 170.60750823190438 33.19956024906787L 0 33.19956024906787Z" stroke="none" fill="none"></path><g id="SvgjsG1518"><text id="SvgjsText1519" font-family="微软雅黑" text-anchor="start" font-size="13px" width="171px" fill="#323232" font-weight="400" align="middle" lineHeight="125%" anchor="start" family="微软雅黑" size="13px" weight="400" font-style="" opacity="1" y="-10.525219875466064" transform="rotate(0)"><tspan id="SvgjsTspan1520" dy="16" x="0"><tspan id="SvgjsTspan1521" style="text-decoration:;">1.参数校验</tspan></tspan><tspan id="SvgjsTspan1522" dy="16" x="0"><tspan id="SvgjsTspan1523" style="text-decoration:;">2.获取image，虚机等信息。</tspan></tspan><tspan id="SvgjsTspan1524" dy="16" x="0"><tspan id="SvgjsTspan1525" style="text-decoration:;">3.构造调度时使用的过滤器</tspan></tspan></text></g></g><g id="SvgjsG1526"><path id="SvgjsPath1527" d="M605.8125 408.99999809265137L710.3125 408.99999809265137L710.3125 408.99999809265137L813.8125 408.99999809265137" stroke="#323232" stroke-width="2" fill="none" marker-end="url(#SvgjsMarker1528)"></path></g><g id="SvgjsG1530" transform="translate(608.9934685468079,419.1999988555908)"><path id="SvgjsPath1531" d="M 0 0L 206 0L 206 38L 0 38Z" stroke="none" fill="none"></path><g id="SvgjsG1532"><text id="SvgjsText1533" font-family="微软雅黑" text-anchor="middle" font-size="13px" width="206px" fill="#323232" font-weight="400" align="middle" lineHeight="125%" anchor="middle" family="微软雅黑" size="13px" weight="400" font-style="" opacity="1" y="-8.125" transform="rotate(0)"><tspan id="SvgjsTspan1534" dy="16" x="103"><tspan id="SvgjsTspan1535" style="text-decoration:;">通过RPC异步地调用nova-</tspan></tspan><tspan id="SvgjsTspan1536" dy="16" x="103"><tspan id="SvgjsTspan1537" style="text-decoration:;">conductor中的</tspan></tspan><tspan id="SvgjsTspan1538" dy="16" x="103"><tspan id="SvgjsTspan1539" style="text-decoration:;">schedule_and_build_instances</tspan></tspan></text></g></g><g id="SvgjsG1540"><path id="SvgjsPath1541" d="M348.8125 324.1999988555908L458.0999711002157 324.1999988555908L458.0999711002157 324.1999988555908L568.3874422004315 324.1999988555908" stroke="#323232" stroke-width="2" fill="none" marker-end="url(#SvgjsMarker1542)"></path></g><g id="SvgjsG1544" transform="translate(369.21690444929686,329.6652785108086)"><path id="SvgjsPath1545" d="M 0 0L 178 0L 178 40L 0 40Z" stroke="none" fill="none"></path><g id="SvgjsG1546"><text id="SvgjsText1547" font-family="微软雅黑" text-anchor="middle" font-size="13px" width="178px" fill="#323232" font-weight="400" align="middle" lineHeight="125%" anchor="middle" family="微软雅黑" size="13px" weight="400" font-style="" opacity="1" y="0.875" transform="rotate(0)"><tspan id="SvgjsTspan1548" dy="16" x="89"><tspan id="SvgjsTspan1549" style="text-decoration:;">直接调用compute/api中</tspan></tspan><tspan id="SvgjsTspan1550" dy="16" x="89"><tspan id="SvgjsTspan1551" style="text-decoration:;">create方法</tspan></tspan></text></g></g><g id="SvgjsG1552"><path id="SvgjsPath1553" d="M853.8125 428.99999809265137L958.8125 428.99999809265137L958.8125 428.99999809265137L1061.2125 428.99999809265137" stroke="#323232" stroke-width="2" fill="none" marker-end="url(#SvgjsMarker1554)"></path></g><g id="SvgjsG1556" transform="translate(885.8669270590098,423.99999809265137)"><path id="SvgjsPath1557" d="M 0 0L 147 0L 147 39L 0 39Z" stroke="none" fill="none"></path><g id="SvgjsG1558"><text id="SvgjsText1559" font-family="微软雅黑" text-anchor="middle" font-size="13px" width="147px" fill="#323232" font-weight="400" align="middle" lineHeight="125%" anchor="middle" family="微软雅黑" size="13px" weight="400" font-style="" opacity="1" y="8.875" transform="rotate(0)"><tspan id="SvgjsTspan1560" dy="16" x="73.5"><tspan id="SvgjsTspan1561" style="text-decoration:;">_schedule_instances</tspan></tspan></text></g></g><g id="SvgjsG1562"><path id="SvgjsPath1563" d="M1104.0372659730688 436.99999809265137L1133.0372659730688 436.99999809265137L1133.0372659730688 472.99999809265137L1106.6372659730687 472.99999809265137" stroke="#323232" stroke-width="2" fill="none" marker-end="url(#SvgjsMarker1564)"></path></g><g id="SvgjsG1566" transform="translate(1139.8640343205088,436.49999809265137)"><path id="SvgjsPath1567" d="M 0 0L 120 0L 120 40L 0 40Z" stroke="none" fill="none"></path><g id="SvgjsG1568"><text id="SvgjsText1569" font-family="微软雅黑" text-anchor="start" font-size="13px" width="120px" fill="#323232" font-weight="400" align="middle" lineHeight="125%" anchor="start" family="微软雅黑" size="13px" weight="400" font-style="" opacity="1" y="0.875" transform="rotate(0)"><tspan id="SvgjsTspan1570" dy="16" x="0"><tspan id="SvgjsTspan1571" style="text-decoration:;">1.过滤</tspan></tspan><tspan id="SvgjsTspan1572" dy="16" x="0"><tspan id="SvgjsTspan1573" style="text-decoration:;">2.按权重排名</tspan></tspan></text></g></g><g id="SvgjsG1574"><path id="SvgjsPath1575" d="M1063.8125 512.1999950408936L959.3125 512.1999950408936L959.3125 512.1999950408936L855.8125 512.1999950408936" stroke-dasharray="3,3" stroke="#323232" stroke-width="2" fill="none" marker-end="url(#SvgjsMarker1576)"></path></g><g id="SvgjsG1578" transform="translate(899.3669270590099,523.9999980926514)"><path id="SvgjsPath1579" d="M 0 0L 120 0L 120 40L 0 40Z" stroke="none" fill="none"></path><g id="SvgjsG1580"><text id="SvgjsText1581" font-family="微软雅黑" text-anchor="middle" font-size="13px" width="120px" fill="#323232" font-weight="400" align="middle" lineHeight="125%" anchor="middle" family="微软雅黑" size="13px" weight="400" font-style="" opacity="1" y="0.875" transform="rotate(0)"><tspan id="SvgjsTspan1582" dy="16" x="60"><tspan id="SvgjsTspan1583" style="text-decoration:;">返回调度后得到的虚</tspan></tspan><tspan id="SvgjsTspan1584" dy="16" x="60"><tspan id="SvgjsTspan1585" style="text-decoration:;">机的Host_id</tspan></tspan></text></g></g><g id="SvgjsG1586"><path id="SvgjsPath1587" d="M854.6125068664551 572.1999950408936L883.6125068664551 572.1999950408936L883.6125068664551 604.1999950408936L857.2125068664551 604.1999950408936" stroke="#323232" stroke-width="2" fill="none" marker-end="url(#SvgjsMarker1588)"></path></g><g id="SvgjsG1590" transform="translate(890.4311840638329,567.9356495156601)"><path id="SvgjsPath1591" d="M 0 0L 120 0L 120 40L 0 40Z" stroke="none" fill="none"></path><g id="SvgjsG1592"><text id="SvgjsText1593" font-family="微软雅黑" text-anchor="middle" font-size="13px" width="120px" fill="#323232" font-weight="400" align="middle" lineHeight="125%" anchor="middle" family="微软雅黑" size="13px" weight="400" font-style="" opacity="1" y="0.875" transform="rotate(0)"><tspan id="SvgjsTspan1594" dy="16" x="60"><tspan id="SvgjsTspan1595" style="text-decoration:;">与DB交互申请虚机</tspan></tspan><tspan id="SvgjsTspan1596" dy="16" x="60"><tspan id="SvgjsTspan1597" style="text-decoration:;">所需的各项资源</tspan></tspan></text></g></g><g id="SvgjsG1598"><path id="SvgjsPath1599" d="M814.9934685468079 622.1999950408936L710.902984273404 622.1999950408936L710.902984273404 622.1999950408936L608.8125 622.1999950408936" stroke="#323232" stroke-width="2" fill="none" marker-end="url(#SvgjsMarker1600)"></path></g><g id="SvgjsG1602" transform="translate(620.5934784650208,632.9999904632568)"><path id="SvgjsPath1603" d="M 0 0L 186.3999900817871 0L 186.3999900817871 36.00000762939453L 0 36.00000762939453Z" stroke="none" fill="none"></path><g id="SvgjsG1604"><text id="SvgjsText1605" font-family="微软雅黑" text-anchor="middle" font-size="13px" width="187px" fill="#323232" font-weight="400" align="middle" lineHeight="125%" anchor="middle" family="微软雅黑" size="13px" weight="400" font-style="" opacity="1" y="-9.124996185302734" transform="rotate(0)"><tspan id="SvgjsTspan1606" dy="16" x="93.5"><tspan id="SvgjsTspan1607" style="text-decoration:;">通过RPC异步地调用nova-</tspan></tspan><tspan id="SvgjsTspan1608" dy="16" x="93.5"><tspan id="SvgjsTspan1609" style="text-decoration:;">compute中的</tspan></tspan><tspan id="SvgjsTspan1610" dy="16" x="93.5"><tspan id="SvgjsTspan1611" style="text-decoration:;">build_and_run_instance方法</tspan></tspan></text></g></g><g id="SvgjsG1612" transform="translate(568.3874422004315,190.89685855074345)"><path id="SvgjsPath1613" d="M 0 4Q 0 0 4 0L 35.25010949562152 0Q 39.25010949562152 0 39.25010949562152 4L 39.25010949562152 603.3031517489392Q 39.25010949562152 607.3031517489392 35.25010949562152 607.3031517489392L 4 607.3031517489392Q 0 607.3031517489392 0 603.3031517489392L 0 4Z" stroke="rgba(153,0,0,1)" stroke-width="2" fill-opacity="1" fill="#ffffff"></path></g><g id="SvgjsG1614"><path id="SvgjsPath1615" d="M608.0124969482422 688.1999950408936L637.0124969482422 688.1999950408936L637.0124969482422 736.1999950408936L610.6124969482422 736.1999950408936" stroke="#323232" stroke-width="2" fill="none" marker-end="url(#SvgjsMarker1616)"></path></g><g id="SvgjsG1618" transform="translate(646.4049887163378,692.4000072479248)"><path id="SvgjsPath1619" d="M 0 0L 160.58847983047008 0L 160.58847983047008 40.19999694824219L 0 40.19999694824219Z" stroke="none" fill="none"></path><g id="SvgjsG1620"><text id="SvgjsText1621" font-family="微软雅黑" text-anchor="start" font-size="13px" width="161px" fill="#323232" font-weight="400" align="middle" lineHeight="125%" anchor="start" family="微软雅黑" size="13px" weight="400" font-style="" opacity="1" y="-7.025001525878906" transform="rotate(0)"><tspan id="SvgjsTspan1622" dy="16" x="0"><tspan id="SvgjsTspan1623" style="text-decoration:;">1.更新和保存虚机状态</tspan></tspan><tspan id="SvgjsTspan1624" dy="16" x="0"><tspan id="SvgjsTspan1625" style="text-decoration:;">2.调用driver.py中的spawn</tspan></tspan><tspan id="SvgjsTspan1626" dy="16" x="0"><tspan id="SvgjsTspan1627" style="text-decoration:;">方法创建虚机</tspan></tspan></text></g></g><g id="SvgjsG1628" transform="translate(814.9934685468079,190.89685855074345)"><path id="SvgjsPath1629" d="M 0 4Q 0 0 4 0L 35.25010949562152 0Q 39.25010949562152 0 39.25010949562152 4L 39.25010949562152 613.3031517489392Q 39.25010949562152 617.3031517489392 35.25010949562152 617.3031517489392L 4 617.3031517489392Q 0 617.3031517489392 0 613.3031517489392L 0 4Z" stroke="rgba(153,0,0,1)" stroke-width="2" fill-opacity="1" fill="#ffffff"></path></g><g id="SvgjsG1630" transform="translate(308.7962572025407,190.89685855074345)"><path id="SvgjsPath1631" d="M 0 4Q 0 0 4 0L 35.25010949562152 0Q 39.25010949562152 0 39.25010949562152 4L 39.25010949562152 603.3031517489392Q 39.25010949562152 607.3031517489392 35.25010949562152 607.3031517489392L 4 607.3031517489392Q 0 607.3031517489392 0 603.3031517489392L 0 4Z" stroke="rgba(153,0,0,1)" stroke-width="2" fill-opacity="1" fill="#ffffff"></path></g></svg>