<svg version="1.1" xmlns="http://www.w3.org/2000/svg" viewBox="0 0 998.5998840332031 573.6000213623047" width="2995.7996520996094" height="1720.800064086914">
  <!-- svg-source:excalidraw -->
  
  <defs>
    <style>
      @font-face {
        font-family: "Virgil";
        src: url("https://excalidraw.com/Virgil.woff2");
      }
      @font-face {
        font-family: "Cascadia";
        src: url("https://excalidraw.com/Cascadia.woff2");
      }
    </style>
  </defs>
  <rect x="0" y="0" width="998.5998840332031" height="573.6000213623047" fill="#ffffff"></rect><g stroke-linecap="round" transform="translate(10 73.20004272460938) rotate(0 136.39999389648438 214.00001525878906)"><path d="M-1.43 -0.04 C97.65 -0.18, 194.8 0.58, 272.07 -0.49 M-0.06 0.17 C105.82 2.23, 211.48 1.76, 273.41 0.7 M271.95 0.41 C274.64 129.63, 274.08 259.49, 271.91 427.88 M273.3 -0.42 C270.6 116.82, 270.53 234.23, 272.58 428.09 M271.62 428.91 C179.3 427.7, 83.18 426.67, -1.18 427.63 M273.15 428.15 C165.35 427.65, 59.75 427.38, 0.21 427.84 M-0.46 427.45 C-0.58 276.11, 0.19 124.09, -0.15 0.21 M0.33 427.75 C1.44 317.94, 1.74 207.3, -0.34 -0.06" stroke="#000000" stroke-width="1" fill="none"></path></g><g stroke-linecap="round" transform="translate(41.199981689453125 105.20004272460938) rotate(0 103.60002136230469 47.600006103515625)"><path d="M-1.41 -0.1 C60.05 -0.74, 123.8 0.78, 207.85 0.56 M-0.5 -0.88 C42.71 0.11, 85.11 -1.01, 206.73 0.8 M205.41 1.7 C209.37 24.16, 206.61 46.56, 208.22 96.27 M206.55 -0.06 C208.28 29.85, 208.05 59.32, 208.1 94.95 M205.81 93.94 C159.73 95.94, 114.14 95.79, 1.51 94.16 M207.22 95.95 C147.06 97.45, 87.71 96.41, -0.8 95.06 M0.7 96.44 C-0.6 65.34, -0.63 34.21, -1.25 0.38 M-1 95.03 C-0.7 67.44, -0.73 40.64, 0.73 -0.6" stroke="#000000" stroke-width="1" fill="none"></path></g><g stroke-linecap="round" transform="translate(41.59996032714844 238.00006103515625) rotate(0 103.60002136230469 47.600006103515625)"><path d="M1.71 0.06 C54.72 2.49, 110.99 2.48, 207.96 0.44 M0.06 -0.28 C59.66 0.87, 118.84 0.23, 207.45 0.46 M207.23 -1.57 C205.98 24.23, 208.52 52.5, 206.53 94.77 M206.35 0.61 C206.86 37.03, 208.3 74.92, 208.18 95.02 M206.37 95.62 C163.33 94.52, 118.15 97.52, -1.64 96.75 M207.43 95.89 C127.35 94.51, 46.48 94.82, 0.49 94.82 M1.93 96.11 C-0.01 63.76, -0.95 33.55, 0.93 -0.57 M-0.07 95.07 C1.24 65.29, 0.53 32.78, -0.35 -0.14" stroke="#000000" stroke-width="1" fill="none"></path></g><g stroke-linecap="round" transform="translate(41.59996032714844 366.800048828125) rotate(0 103.60002136230469 47.600006103515625)"><path d="M0.98 -0.77 C72.83 -2.5, 144.21 0.17, 208.01 -0.46 M0.41 -0.25 C53.3 -0.39, 105.4 0.41, 207.09 0.28 M206.5 -0.29 C208.17 37.76, 207.1 74.34, 208.51 96.17 M206.76 0.18 C206.68 36.33, 206.38 74.75, 207.98 94.36 M206.56 95.68 C151.36 97.09, 98.64 96.74, 0.91 94.57 M207.25 95.4 C142.72 95.06, 77.21 95.41, 0.57 95.56 M0.03 95.04 C-2.36 71.8, -0.6 47.97, -1.88 -0.32 M0.65 94.6 C-0.3 68.42, -0.03 40.67, 0.88 0.05" stroke="#000000" stroke-width="1" fill="none"></path></g><g stroke-linecap="round" transform="translate(360.6000061035156 74.19999694824219) rotate(0 136.39999389648438 214.00001525878906)"><path d="M-1.48 0.69 C71.86 3.43, 142.31 3.06, 273.61 -1.08 M-0.77 0.16 C76.06 1.5, 151.69 0.92, 272.49 -0.06 M272.54 -0.03 C272.88 127.66, 273.86 255.19, 272.39 427.71 M273.01 0.48 C273.69 129, 273.43 259.41, 273.01 428.51 M272.72 429.21 C217.62 427.62, 161.18 428.24, -0.63 427.48 M273.29 428.28 C182.85 426.47, 92.89 426.78, 0.44 427.82 M0.15 428.45 C-2.69 260.68, -2.56 94.52, 0.56 0.7 M0.32 428.07 C0.42 316.82, 0.42 206.24, -0.41 0.19" stroke="#000000" stroke-width="1" fill="none"></path></g><g stroke-linecap="round" transform="translate(382.0000305175781 105.40000915527344) rotate(0 114.5 48)"><path d="M0.76 0.66 C76.57 1.62, 151.13 2.74, 227.82 -0.35 M0.18 -0.13 C53.39 1.2, 105.95 1.59, 228.93 -0.02 M228.95 -0.61 C230.53 31.79, 231.23 60.27, 228.45 96.05 M229.92 -0.14 C228.59 32.32, 230.37 66.34, 229.98 95.07 M230.33 97.35 C136.97 97.22, 47.32 95.22, -0.57 96.49 M229.31 95.67 C147.58 96.55, 66.05 97.71, -0.2 96.77 M0.87 94.96 C0.42 57.14, 2.24 20.95, 1.35 -0.81 M0.13 96.18 C-0.45 68.8, 0.52 40.48, 0.37 0.57" stroke="#000000" stroke-width="1" fill="none"></path></g><g stroke-linecap="round" transform="translate(385.00001525878906 239.00001525878906) rotate(0 114.5 47.600006103515625)"><path d="M0.66 1.62 C47.49 0.35, 96.34 -2.05, 228.65 -1.15 M-0.13 0.22 C53.97 -0.82, 109.06 -0.48, 228.98 0.15 M228.39 0.97 C230.02 35.76, 227.98 67.64, 229.05 96.07 M228.86 -0.91 C228.74 34.44, 229.79 68.13, 228.07 96.14 M230.35 93.51 C149 95.71, 65.69 96.15, 0.49 96.18 M228.67 95.65 C180.59 96.71, 134.01 95.71, 0.77 96.02 M-1.04 94.8 C-0.93 76.23, 0.94 55.78, -0.81 -0.3 M0.18 95 C-0.42 64.92, -1.37 33.46, 0.57 -0.37" stroke="#000000" stroke-width="1" fill="none"></path></g><g stroke-linecap="round" transform="translate(386.40000915527344 367.00001525878906) rotate(0 114.5 48)"><path d="M1.62 -0.24 C48.16 0.13, 92.69 -1.11, 227.85 -1.04 M0.22 -0.73 C45.67 -0.05, 92.09 0.26, 229.15 0.5 M229.97 1.26 C230.65 25.58, 228.43 52.77, 229.87 97.05 M228.09 -0.65 C230.75 33.13, 230.87 64.52, 229.94 96.55 M227.31 97.32 C160.43 96.86, 93.31 98.04, 0.98 94.44 M229.45 95.32 C146.67 95.73, 62.54 96.02, 0.82 95.27 M-0.4 95.21 C1 66.87, 0.94 34.76, -0.3 0.52 M-0.2 96.16 C0.65 60.51, 0.24 27.17, -0.37 0.69" stroke="#000000" stroke-width="1" fill="none"></path></g><g stroke-linecap="round" transform="translate(715.7998962402344 10) rotate(0 136.39999389648438 276.80001068115234)"><path d="M0.57 0.1 C101.52 -1.95, 199.05 -2.02, 272.47 -0.12 M0.26 0.57 C69.2 -2.26, 140.23 -1.99, 272.75 0.24 M273.47 -0.59 C271.07 200.99, 270.08 399.93, 273.57 553.27 M272.86 -0.11 C271.33 218.8, 270.88 437.68, 272.9 554 M273.32 554.27 C205.72 553.05, 137.53 553.48, 1.25 554.67 M272.38 553.19 C215.05 554.41, 158.5 554.6, -0.32 554.16 M-0.59 554.05 C-0.58 400.26, 0.04 245.22, 0.04 -0.08 M-0.35 553.62 C0.82 425.32, 0.39 296.68, -0.11 0.35" stroke="#000000" stroke-width="1" fill="none"></path></g><g stroke-linecap="round" transform="translate(739.1999206542969 45.19996643066406) rotate(0 112 41)"><path d="M0.11 1.5 C58.72 -2.1, 118.51 -1.07, 223.87 -0.75 M0.63 -0.85 C82.94 -0.31, 166.96 -0.7, 224.27 0.53 M222.52 0.86 C225.39 15.31, 222.08 35.77, 223.17 83.9 M223.72 0.55 C223.67 17.77, 223.87 36.91, 225 81.45 M224.74 81.87 C134.06 81.16, 45.43 84.03, 1.18 80.45 M223.54 81.52 C174.84 81.31, 126.07 80.61, 0.62 81.81 M1.12 81.34 C1.64 57.12, -1.07 30.59, -0.2 -1.35 M0.05 82.57 C1.45 59.09, 1.4 36.94, 0.87 0.25" stroke="#000000" stroke-width="1" fill="none"></path></g><g stroke-linecap="round" transform="translate(739.9999237060547 162.0000457763672) rotate(0 112.5 48)"><path d="M1.5 -1.15 C75.7 -1.35, 153.82 -0.26, 224.25 1.27 M-0.84 -0.77 C84.37 -1.88, 168.02 -1.14, 225.53 -0.8 M225.86 1.81 C224.19 22.4, 227.74 46.97, 226.9 94.47 M225.55 -0.03 C224.59 25.53, 225.41 51.74, 224.45 96.98 M224.87 95.17 C153.93 96.48, 87.2 98.01, -1.54 94.6 M224.52 95.82 C147.51 95.01, 68.97 95.6, -0.19 96.12 M-0.66 97.55 C1.58 67.11, 0.81 40.34, -1.35 -0.54 M0.57 96.86 C0.33 74.99, 0.57 53.24, 0.25 0.79" stroke="#000000" stroke-width="1" fill="none"></path></g><g stroke-linecap="round" transform="translate(742.4000701904297 298.00001525878906) rotate(0 112.5 48)"><path d="M-1.15 -1.4 C74.47 -2.06, 151.26 -2.44, 226.27 1.26 M-0.77 0.33 C74.52 1.84, 150.26 2.43, 224.2 -0.44 M226.81 -1.61 C222.79 38.77, 223.46 75.58, 223.47 95.29 M224.97 -0.56 C224.89 30.58, 225.73 60.11, 225.98 96.09 M224.17 94.52 C149.59 97.24, 76.07 94.31, -1.4 96.79 M224.82 96.35 C169.66 94.57, 114.87 94.73, 0.12 95.9 M1.55 96.87 C-1.7 74.38, -0.74 51.19, -0.54 -1.45 M0.86 95.48 C0.75 75.38, 0.82 55.56, 0.79 0.68" stroke="#000000" stroke-width="1" fill="none"></path></g><g transform="translate(46.199981689453125 125.800048828125) rotate(0 98.5 27)"><text x="98.5" y="15" font-family="Helvetica, Segoe UI Emoji" font-size="16px" fill="#000000" text-anchor="middle" style="white-space: pre;" direction="ltr">nova\api\openstack\comput</text><text x="98.5" y="33" font-family="Helvetica, Segoe UI Emoji" font-size="16px" fill="#000000" text-anchor="middle" style="white-space: pre;" direction="ltr">e\servers.py::</text><text x="98.5" y="51" font-family="Helvetica, Segoe UI Emoji" font-size="16px" fill="#000000" text-anchor="middle" style="white-space: pre;" direction="ltr">create</text></g><g transform="translate(46.59996032714844 267.6000671386719) rotate(0 98.5 18)"><text x="98.5" y="14" font-family="Helvetica, Segoe UI Emoji" font-size="16px" fill="#000000" text-anchor="middle" style="white-space: pre;" direction="ltr">nova\compute\api.py::</text><text x="98.5" y="32" font-family="Helvetica, Segoe UI Emoji" font-size="16px" fill="#000000" text-anchor="middle" style="white-space: pre;" direction="ltr">create</text></g><g transform="translate(46.59996032714844 396.4000549316406) rotate(0 98.5 18)"><text x="98.5" y="14" font-family="Helvetica, Segoe UI Emoji" font-size="16px" fill="#000000" text-anchor="middle" style="white-space: pre;" direction="ltr">nova\compute\api.py::</text><text x="98.5" y="32" font-family="Helvetica, Segoe UI Emoji" font-size="16px" fill="#000000" text-anchor="middle" style="white-space: pre;" direction="ltr">_create_instance</text></g><g transform="translate(387.0000305175781 135.40000915527344) rotate(0 109.5 27)"><text x="109.5" y="23" font-family="Helvetica, Segoe UI Emoji" font-size="16px" fill="#000000" text-anchor="middle" style="white-space: pre;" direction="ltr">nova\conductor\api.py::</text><text x="109.5" y="50" font-family="Helvetica, Segoe UI Emoji" font-size="16px" fill="#000000" text-anchor="middle" style="white-space: pre;" direction="ltr">schedule_and_build_instances</text></g><g stroke-linecap="round"><g transform="translate(139.5999755859375 202.800048828125) rotate(0 0 19.199996948242188)"><path d="M0 0 C0 6.4, 0 32, 0 38.4 M0 0 C0 6.4, 0 32, 0 38.4" stroke="#000000" stroke-width="1" fill="none"></path></g><g transform="translate(139.5999755859375 202.800048828125) rotate(0 0 19.199996948242188)"><path d="M-6.57 20.36 C-4.87 25.01, -3.18 29.66, 0 38.4 M-6.57 20.36 C-4.49 26.07, -2.41 31.79, 0 38.4" stroke="#000000" stroke-width="1" fill="none"></path></g><g transform="translate(139.5999755859375 202.800048828125) rotate(0 0 19.199996948242188)"><path d="M6.57 20.36 C4.87 25.01, 3.18 29.66, 0 38.4 M6.57 20.36 C4.49 26.07, 2.41 31.79, 0 38.4" stroke="#000000" stroke-width="1" fill="none"></path></g></g><g stroke-linecap="round"><g transform="translate(140.4000244140625 335.60003662109375) rotate(0 0 16.800033569335938)"><path d="M0 0 C0 5.6, 0 28, 0 33.6 M0 0 C0 5.6, 0 28, 0 33.6" stroke="#000000" stroke-width="1" fill="none"></path></g><g transform="translate(140.4000244140625 335.60003662109375) rotate(0 0 16.800033569335938)"><path d="M-5.75 17.81 C-4.29 21.81, -2.84 25.8, 0 33.6 M-5.75 17.81 C-4.53 21.15, -3.32 24.48, 0 33.6" stroke="#000000" stroke-width="1" fill="none"></path></g><g transform="translate(140.4000244140625 335.60003662109375) rotate(0 0 16.800033569335938)"><path d="M5.75 17.81 C4.29 21.81, 2.84 25.8, 0 33.6 M5.75 17.81 C4.53 21.15, 3.32 24.48, 0 33.6" stroke="#000000" stroke-width="1" fill="none"></path></g></g><g stroke-linecap="round"><g transform="translate(250.01008385280568 414.31148391453155) rotate(0 65.56152277420989 -125.89136923293131)"><path d="M0.44 -0.24 C22.35 -42.09, 109.94 -209.87, 131.92 -251.54 M-0.79 -1.41 C20.92 -43.11, 108.85 -209.34, 130.94 -250.58" stroke="#000000" stroke-width="1" fill="none"></path></g><g transform="translate(250.01008385280568 414.31148391453155) rotate(0 65.56152277420989 -125.89136923293131)"><path d="M126.36 -220.98 C126.44 -230.28, 129.98 -241.12, 130.39 -248.65 M126.2 -221.68 C128.21 -228.81, 128.87 -234.62, 130.96 -249.94" stroke="#000000" stroke-width="1" fill="none"></path></g><g transform="translate(250.01008385280568 414.31148391453155) rotate(0 65.56152277420989 -125.89136923293131)"><path d="M108.24 -230.61 C114.35 -236.75, 123.95 -244.37, 130.39 -248.65 M108.08 -231.32 C114.5 -236.05, 119.61 -239.49, 130.96 -249.94" stroke="#000000" stroke-width="1" fill="none"></path></g></g><g transform="translate(390.00001525878906 268.6000213623047) rotate(0 109.5 27)"><text x="109.5" y="23" font-family="Helvetica, Segoe UI Emoji" font-size="16px" fill="#000000" text-anchor="middle" style="white-space: pre;" direction="ltr">nova\conductor\rpcapi.py::</text><text x="109.5" y="50" font-family="Helvetica, Segoe UI Emoji" font-size="16px" fill="#000000" text-anchor="middle" style="white-space: pre;" direction="ltr">schedule_and_build_instances</text></g><g transform="translate(391.40000915527344 397.00001525878906) rotate(0 109.5 27)"><text x="109.5" y="23" font-family="Helvetica, Segoe UI Emoji" font-size="16px" fill="#000000" text-anchor="middle" style="white-space: pre;" direction="ltr">nova\conductor\manager.py::</text><text x="109.5" y="50" font-family="Helvetica, Segoe UI Emoji" font-size="16px" fill="#000000" text-anchor="middle" style="white-space: pre;" direction="ltr">schedule_and_build_instances</text></g><g transform="translate(744.1999206542969 68.19996643066406) rotate(0 107 18)"><text x="107" y="14" font-family="Helvetica, Segoe UI Emoji" font-size="16px" fill="#000000" text-anchor="middle" style="white-space: pre;" direction="ltr">nova\conductor\rpcapi.py::</text><text x="107" y="32" font-family="Helvetica, Segoe UI Emoji" font-size="16px" fill="#000000" text-anchor="middle" style="white-space: pre;" direction="ltr">build_and_run_instance</text></g><g transform="translate(744.9999237060547 192.0000457763672) rotate(0 107.5 18)"><text x="107.5" y="14" font-family="Helvetica, Segoe UI Emoji" font-size="16px" fill="#000000" text-anchor="middle" style="white-space: pre;" direction="ltr">nova\conductor\manager.py::</text><text x="107.5" y="32" font-family="Helvetica, Segoe UI Emoji" font-size="16px" fill="#000000" text-anchor="middle" style="white-space: pre;" direction="ltr">build_and_run_instance</text></g><g transform="translate(747.4000701904297 328.00001525878906) rotate(0 107.5 18)"><text x="107.5" y="14" font-family="Helvetica, Segoe UI Emoji" font-size="16px" fill="#000000" text-anchor="middle" style="white-space: pre;" direction="ltr">nova\conductor\manager.py::</text><text x="107.5" y="32" font-family="Helvetica, Segoe UI Emoji" font-size="16px" fill="#000000" text-anchor="middle" style="white-space: pre;" direction="ltr">do_build_and_run_instance</text></g><g stroke-linecap="round" transform="translate(745.8000335693359 431.4000549316406) rotate(0 113 48)"><path d="M0.16 0.47 C64.7 1.05, 126.93 1.39, 227.27 1.02 M-0.38 -0.27 C84.4 -0.13, 168.6 0.16, 225.76 -0.76 M226.57 1.96 C225.58 23.83, 227.52 47.79, 225.31 95.32 M225.54 0.06 C226.37 30.38, 225.31 58.99, 225.54 96.25 M225.13 96.82 C138.12 96.59, 49.64 99.16, 1.58 95.39 M226.71 96.31 C158.67 97.04, 89.95 97.48, 0.54 96.68 M-1.22 95.72 C-0.22 73.03, 1.99 49.04, 0.65 -0.85 M0.17 95.44 C0.27 67.74, -0.53 36.72, 0.88 0.66" stroke="#000000" stroke-width="1" fill="none"></path></g><g transform="translate(750.8000335693359 461.4000549316406) rotate(0 108 18)"><text x="108" y="14" font-family="Helvetica, Segoe UI Emoji" font-size="16px" fill="#000000" text-anchor="middle" style="white-space: pre;" direction="ltr">nova\conductor\manager.py::</text><text x="108" y="32" font-family="Helvetica, Segoe UI Emoji" font-size="16px" fill="#000000" text-anchor="middle" style="white-space: pre;" direction="ltr">_build_and_run_instance</text></g><g stroke-linecap="round"><g transform="translate(495.5999755859375 202.800048828125) rotate(0 0.4000244140625 19.199996948242188)"><path d="M0 0 C0.13 6.4, 0.67 32, 0.8 38.4 M0 0 C0.13 6.4, 0.67 32, 0.8 38.4" stroke="#000000" stroke-width="1" fill="none"></path></g><g transform="translate(495.5999755859375 202.800048828125) rotate(0 0.4000244140625 19.199996948242188)"><path d="M-6.14 20.49 C-4.25 25.37, -2.37 30.24, 0.8 38.4 M-6.14 20.49 C-3.67 26.86, -1.21 33.23, 0.8 38.4" stroke="#000000" stroke-width="1" fill="none"></path></g><g transform="translate(495.5999755859375 202.800048828125) rotate(0 0.4000244140625 19.199996948242188)"><path d="M6.99 20.22 C5.31 25.17, 3.62 30.11, 0.8 38.4 M6.99 20.22 C4.79 26.68, 2.59 33.15, 0.8 38.4" stroke="#000000" stroke-width="1" fill="none"></path></g></g><g stroke-linecap="round"><g transform="translate(502 336.4000549316406) rotate(0 0 15.599990844726562)"><path d="M0 0 C0 5.2, 0 26, 0 31.2 M0 0 C0 5.2, 0 26, 0 31.2" stroke="#000000" stroke-width="1" fill="none"></path></g><g transform="translate(502 336.4000549316406) rotate(0 0 15.599990844726562)"><path d="M-5.34 16.54 C-3.92 20.44, -2.5 24.33, 0 31.2 M-5.34 16.54 C-3.62 21.27, -1.9 25.99, 0 31.2" stroke="#000000" stroke-width="1" fill="none"></path></g><g transform="translate(502 336.4000549316406) rotate(0 0 15.599990844726562)"><path d="M5.34 16.54 C3.92 20.44, 2.5 24.33, 0 31.2 M5.34 16.54 C3.62 21.27, 1.9 25.99, 0 31.2" stroke="#000000" stroke-width="1" fill="none"></path></g></g><g stroke-linecap="round"><g transform="translate(616.4000244140625 415.60003662109375) rotate(0 62.071901386706145 -165.60504676747138)"><path d="M0.58 -0.95 C21.47 -56.2, 104.02 -277.23, 124.71 -332.38 M-0.57 1.17 C20.27 -53.91, 103.32 -276.12, 124.14 -331.46" stroke="#000000" stroke-width="1" fill="none"></path></g><g transform="translate(616.4000244140625 415.60003662109375) rotate(0 62.071901386706145 -165.60504676747138)"><path d="M122.27 -300.28 C122.17 -307.78, 123.08 -315.81, 125.27 -330.22 M123.27 -302.44 C123.46 -310.95, 124.36 -322.14, 123.21 -331.16" stroke="#000000" stroke-width="1" fill="none"></path></g><g transform="translate(616.4000244140625 415.60003662109375) rotate(0 62.071901386706145 -165.60504676747138)"><path d="M103.06 -307.48 C107.71 -313.28, 113.42 -319.5, 125.27 -330.22 M104.05 -309.64 C110.91 -315.8, 118.45 -324.5, 123.21 -331.16" stroke="#000000" stroke-width="1" fill="none"></path></g></g><g stroke-linecap="round"><g transform="translate(849.2000122070312 126.00004577636719) rotate(0 0.4000244140625 19.20000457763672)"><path d="M0 0 C0.13 6.4, 0.67 32, 0.8 38.4 M0 0 C0.13 6.4, 0.67 32, 0.8 38.4" stroke="#000000" stroke-width="1" fill="none"></path></g><g transform="translate(849.2000122070312 126.00004577636719) rotate(0 0.4000244140625 19.20000457763672)"><path d="M-6.14 20.49 C-3.98 26.08, -1.81 31.67, 0.8 38.4 M-6.14 20.49 C-3.61 27.03, -1.08 33.56, 0.8 38.4" stroke="#000000" stroke-width="1" fill="none"></path></g><g transform="translate(849.2000122070312 126.00004577636719) rotate(0 0.4000244140625 19.20000457763672)"><path d="M6.99 20.22 C5.06 25.9, 3.13 31.57, 0.8 38.4 M6.99 20.22 C4.73 26.85, 2.47 33.48, 0.8 38.4" stroke="#000000" stroke-width="1" fill="none"></path></g></g><g stroke-linecap="round"><g transform="translate(856.3999633789062 259.60003662109375) rotate(0 0 19.600006103515625)"><path d="M0 0 C0 6.53, 0 32.67, 0 39.2 M0 0 C0 6.53, 0 32.67, 0 39.2" stroke="#000000" stroke-width="1" fill="none"></path></g><g transform="translate(856.3999633789062 259.60003662109375) rotate(0 0 19.600006103515625)"><path d="M-6.7 20.78 C-4.5 26.85, -2.29 32.91, 0 39.2 M-6.7 20.78 C-4.25 27.52, -1.8 34.26, 0 39.2" stroke="#000000" stroke-width="1" fill="none"></path></g><g transform="translate(856.3999633789062 259.60003662109375) rotate(0 0 19.600006103515625)"><path d="M6.7 20.78 C4.5 26.85, 2.29 32.91, 0 39.2 M6.7 20.78 C4.25 27.52, 1.8 34.26, 0 39.2" stroke="#000000" stroke-width="1" fill="none"></path></g></g><g stroke-linecap="round"><g transform="translate(859.6000366210938 394.800048828125) rotate(0 0 18.79998779296875)"><path d="M0 0 C0 6.27, 0 31.33, 0 37.6 M0 0 C0 6.27, 0 31.33, 0 37.6" stroke="#000000" stroke-width="1" fill="none"></path></g><g transform="translate(859.6000366210938 394.800048828125) rotate(0 0 18.79998779296875)"><path d="M-6.43 19.93 C-4.57 25.05, -2.7 30.18, 0 37.6 M-6.43 19.93 C-4 26.62, -1.57 33.3, 0 37.6" stroke="#000000" stroke-width="1" fill="none"></path></g><g transform="translate(859.6000366210938 394.800048828125) rotate(0 0 18.79998779296875)"><path d="M6.43 19.93 C4.57 25.05, 2.7 30.18, 0 37.6 M6.43 19.93 C4 26.62, 1.57 33.3, 0 37.6" stroke="#000000" stroke-width="1" fill="none"></path></g></g></svg>