<svg id="SvgjsSvg1216" width="1284.862548828125" height="840.7999877929688" xmlns="http://www.w3.org/2000/svg" version="1.1" xmlns:xlink="http://www.w3.org/1999/xlink" xmlns:svgjs="http://svgjs.com/svgjs"><defs id="SvgjsDefs1217"><marker id="SvgjsMarker1251" markerWidth="14" markerHeight="10" refX="10" refY="5" viewBox="0 0 14 10" orient="auto" markerUnits="userSpaceOnUse" stroke-dasharray="0,0"><path id="SvgjsPath1252" d="M0,0 L14,5 L0,10 L0,0" fill="#000000" stroke="#000000" stroke-width="1"></path></marker><marker id="SvgjsMarker1286" markerWidth="14" markerHeight="10" refX="10" refY="5" viewBox="0 0 14 10" orient="auto" markerUnits="userSpaceOnUse" stroke-dasharray="0,0"><path id="SvgjsPath1287" d="M0,0 L14,5 L0,10 L0,0" fill="#323232" stroke="#323232" stroke-width="1"></path></marker><marker id="SvgjsMarker1306" markerWidth="14" markerHeight="10" refX="10" refY="5" viewBox="0 0 14 10" orient="auto" markerUnits="userSpaceOnUse" stroke-dasharray="0,0"><path id="SvgjsPath1307" d="M0,0 L14,5 L0,10 L0,0" fill="#323232" stroke="#323232" stroke-width="1"></path></marker><marker id="SvgjsMarker1320" markerWidth="16" markerHeight="16" refX="11" refY="8" viewBox="0 0 16 16" orient="auto" markerUnits="userSpaceOnUse" stroke-dasharray="0,0"><path id="SvgjsPath1321" d="M0,0 L10,8 L0,16" fill="none" stroke="#323232" stroke-width="2"></path></marker><marker id="SvgjsMarker1334" markerWidth="14" markerHeight="10" refX="10" refY="5" viewBox="0 0 14 10" orient="auto" markerUnits="userSpaceOnUse" stroke-dasharray="0,0"><path id="SvgjsPath1335" d="M0,0 L14,5 L0,10 L0,0" fill="#323232" stroke="#323232" stroke-width="1"></path></marker><marker id="SvgjsMarker1346" markerWidth="14" markerHeight="10" refX="10" refY="5" viewBox="0 0 14 10" orient="auto" markerUnits="userSpaceOnUse" stroke-dasharray="0,0"><path id="SvgjsPath1347" d="M0,0 L14,5 L0,10 L0,0" fill="#323232" stroke="#323232" stroke-width="1"></path></marker><marker id="SvgjsMarker1356" markerWidth="14" markerHeight="10" refX="10" refY="5" viewBox="0 0 14 10" orient="auto" markerUnits="userSpaceOnUse" stroke-dasharray="0,0"><path id="SvgjsPath1357" d="M0,0 L14,5 L0,10 L0,0" fill="#323232" stroke="#323232" stroke-width="1"></path></marker><marker id="SvgjsMarker1368" markerWidth="16" markerHeight="16" refX="11" refY="8" viewBox="0 0 16 16" orient="auto" markerUnits="userSpaceOnUse" stroke-dasharray="0,0"><path id="SvgjsPath1369" d="M0,0 L10,8 L0,16" fill="none" stroke="#323232" stroke-width="2"></path></marker><marker id="SvgjsMarker1380" markerWidth="14" markerHeight="10" refX="10" refY="5" viewBox="0 0 14 10" orient="auto" markerUnits="userSpaceOnUse" stroke-dasharray="0,0"><path id="SvgjsPath1381" d="M0,0 L14,5 L0,10 L0,0" fill="#323232" stroke="#323232" stroke-width="1"></path></marker><marker id="SvgjsMarker1392" markerWidth="16" markerHeight="16" refX="11" refY="8" viewBox="0 0 16 16" orient="auto" markerUnits="userSpaceOnUse" stroke-dasharray="0,0"><path id="SvgjsPath1393" d="M0,0 L10,8 L0,16" fill="none" stroke="#323232" stroke-width="2"></path></marker><marker id="SvgjsMarker1408" markerWidth="14" markerHeight="10" refX="10" refY="5" viewBox="0 0 14 10" orient="auto" markerUnits="userSpaceOnUse" stroke-dasharray="0,0"><path id="SvgjsPath1409" d="M0,0 L14,5 L0,10 L0,0" fill="#323232" stroke="#323232" stroke-width="1"></path></marker></defs><g id="SvgjsG1218"><path id="SvgjsPath1219" d="M588.6125068664551 667.8000183105469L588.6125068664551 740.3000183105469L588.6125068664551 740.3000183105469L588.6125068664551 812.8000183105469" stroke-dasharray="3,3" stroke="#323232" stroke-width="2" fill="none"></path></g><g id="SvgjsG1220"><path id="SvgjsPath1221" d="M1085.612506866455 670.8000183105469L1085.612506866455 743.3000183105469L1085.612506866455 743.3000183105469L1085.612506866455 815.8000183105469" stroke-dasharray="3,3" stroke="#323232" stroke-width="2" fill="none"></path></g><g id="SvgjsG1222"><path id="SvgjsPath1223" d="M835.6125068664551 658.8000183105469L835.6125068664551 731.3000183105469L835.6125068664551 731.3000183105469L835.6125068664551 803.8000183105469" stroke-dasharray="3,3" stroke="#323232" stroke-width="2" fill="none"></path></g><g id="SvgjsG1224"><path id="SvgjsPath1225" d="M327.6125068664551 669.8000183105469L327.6125068664551 742.3000183105469L327.6125068664551 742.3000183105469L327.6125068664551 814.8000183105469" stroke-dasharray="3,3" stroke="#323232" stroke-width="2" fill="none"></path></g><g id="SvgjsG1226" transform="translate(267.4113297114817,114.195349164238)"><path id="SvgjsPath1227" d="M 60.739647625624364 30L 60.739647625624364 554.804650835762" stroke-dasharray="3,4" stroke="rgba(0,0,0,1)" stroke-width="2" fill="none"></path><path id="SvgjsPath1228" d="M 0 0L 121.47929525124873 0L 121.47929525124873 30L 0 30Z" stroke="rgba(0,0,0,1)" stroke-width="2" fill-opacity="1" fill="#ffffcc"></path><g id="SvgjsG1229"><text id="SvgjsText1230" font-family="微软雅黑" text-anchor="middle" font-size="13px" width="102px" fill="#323232" font-weight="700" align="middle" lineHeight="125%" anchor="middle" family="微软雅黑" size="13px" weight="700" font-style="" opacity="1" y="4.375" transform="rotate(0)"><tspan id="SvgjsTspan1231" dy="16" x="61"><tspan id="SvgjsTspan1232" style="text-decoration:;">nova-api</tspan></tspan></text></g></g><g id="SvgjsG1233" transform="translate(530.7479874243902,114.19534916423794)"><path id="SvgjsPath1234" d="M 57.8285006459738 30L 57.8285006459738 554.8046508357621" stroke-dasharray="3,4" stroke="rgba(0,0,0,1)" stroke-width="2" fill="none"></path><path id="SvgjsPath1235" d="M 0 0L 115.6570012919476 0L 115.6570012919476 30L 0 30Z" stroke="rgba(0,0,0,1)" stroke-width="2" fill-opacity="1" fill="#ffffcc"></path><g id="SvgjsG1236"><text id="SvgjsText1237" font-family="微软雅黑" text-anchor="middle" font-size="13px" width="96px" fill="#323232" font-weight="700" align="middle" lineHeight="125%" anchor="middle" family="微软雅黑" size="13px" weight="700" font-style="" opacity="1" y="4.375" transform="rotate(0)"><tspan id="SvgjsTspan1238" dy="16" x="58"><tspan id="SvgjsTspan1239" style="text-decoration:;">nova-compute</tspan></tspan></text></g></g><g id="SvgjsG1240" transform="translate(778.6813694464691,114.19534916423794)"><path id="SvgjsPath1241" d="M 57.27368362373741 30L 57.27368362373741 541.7403022587707" stroke-dasharray="3,4" stroke="rgba(0,0,0,1)" stroke-width="2" fill="none"></path><path id="SvgjsPath1242" d="M 0 0L 114.54736724747482 0L 114.54736724747482 30L 0 30Z" stroke="rgba(0,0,0,1)" stroke-width="2" fill-opacity="1" fill="#ffffcc"></path><g id="SvgjsG1243"><text id="SvgjsText1244" font-family="微软雅黑" text-anchor="middle" font-size="13px" width="95px" fill="#323232" font-weight="700" align="middle" lineHeight="125%" anchor="middle" family="微软雅黑" size="13px" weight="700" font-style="" opacity="1" y="-4.125" transform="rotate(0)"><tspan id="SvgjsTspan1245" dy="16" x="57.5"><tspan id="SvgjsTspan1246" style="text-decoration:;">nova-</tspan></tspan><tspan id="SvgjsTspan1247" dy="16" x="57.5"><tspan id="SvgjsTspan1248" style="text-decoration:;">conductor</tspan></tspan></text></g></g><g id="SvgjsG1249"><path id="SvgjsPath1250" d="M106.0124969482422 202.79999923706055L206.90437707539144 202.79999923706055L206.90437707539144 202.79999923706055L308.7962572025407 202.79999923706055" stroke="#000000" stroke-width="2" fill="none" marker-end="url(#SvgjsMarker1251)"></path></g><g id="SvgjsG1253" transform="translate(61.663989178755344,25)"><path id="SvgjsPath1254" d="M 16.058770263407503 7.853277440911391C 16.058770263407503 -2.6177591469704637 32.117540526815006 -2.6177591469704637 32.117540526815006 7.853277440911391C 32.117540526815006 18.324314028793246 16.058770263407503 18.324314028793246 16.058770263407503 7.853277440911391M 24.088155395111254 15.706554881822782L 24.088155395111254 47.11966464546835M 24.088155395111254 47.11966464546835L 4.014692565851876 62.82621952729113M 24.088155395111254 47.11966464546835L 44.16161822437063 62.82621952729113M 0 31.413109763645565L 48.17631079022251 31.413109763645565" stroke="rgba(50,50,50,1)" stroke-width="2" fill-opacity="1" fill="#ffffff"></path><path id="SvgjsPath1255" d="M 0 0L 48.17631079022251 0L 48.17631079022251 62.82621952729113L 0 62.82621952729113Z" stroke="none" fill="none"></path><g id="SvgjsG1256"><text id="SvgjsText1257" font-family="微软雅黑" text-anchor="middle" font-size="13px" width="89px" fill="#323232" font-weight="400" align="middle" lineHeight="125%" anchor="middle" family="微软雅黑" size="13px" weight="400" font-style="" opacity="1" y="67.20121952729113" transform="rotate(0)"></text></g></g><g id="SvgjsG1258" transform="translate(25.012496948242188,114.195349164238)"><path id="SvgjsPath1259" d="M 60.739647625624364 30L 60.739647625624364 554.804650835762" stroke-dasharray="3,4" stroke="rgba(0,0,0,1)" stroke-width="2" fill="none"></path><path id="SvgjsPath1260" d="M 0 0L 121.47929525124873 0L 121.47929525124873 30L 0 30Z" stroke="rgba(0,0,0,1)" stroke-width="2" fill-opacity="1" fill="#ffffff"></path><g id="SvgjsG1261"><text id="SvgjsText1262" font-family="微软雅黑" text-anchor="middle" font-size="13px" width="102px" fill="#323232" font-weight="700" align="middle" lineHeight="125%" anchor="middle" family="微软雅黑" size="13px" weight="700" font-style="" opacity="1" y="4.375" transform="rotate(0)"><tspan id="SvgjsTspan1263" dy="16" x="61"><tspan id="SvgjsTspan1264" style="text-decoration:;">user</tspan></tspan></text></g></g><g id="SvgjsG1265" transform="translate(66.12708982605584,190.89686045809208)"><path id="SvgjsPath1266" d="M 0 4Q 0 0 4 0L 35.25010949562152 0Q 39.25010949562152 0 39.25010949562152 4L 39.25010949562152 161.3031364901501Q 39.25010949562152 165.3031364901501 35.25010949562152 165.3031364901501L 4 165.3031364901501Q 0 165.3031364901501 0 161.3031364901501L 0 4Z" stroke="rgba(153,0,0,1)" stroke-width="2" fill-opacity="1" fill="#ffffff"></path></g><g id="SvgjsG1267" transform="translate(1025.5051174240753,114.19534916423794)"><path id="SvgjsPath1268" d="M 60.739647625624364 30L 60.739647625624364 554.804650835762" stroke-dasharray="3,4" stroke="rgba(0,0,0,1)" stroke-width="2" fill="none"></path><path id="SvgjsPath1269" d="M 0 0L 121.47929525124873 0L 121.47929525124873 30L 0 30Z" stroke="rgba(0,0,0,1)" stroke-width="2" fill-opacity="1" fill="#ffffcc"></path><g id="SvgjsG1270"><text id="SvgjsText1271" font-family="微软雅黑" text-anchor="middle" font-size="13px" width="102px" fill="#323232" font-weight="700" align="middle" lineHeight="125%" anchor="middle" family="微软雅黑" size="13px" weight="700" font-style="" opacity="1" y="4.375" transform="rotate(0)"><tspan id="SvgjsTspan1272" dy="16" x="61"><tspan id="SvgjsTspan1273" style="text-decoration:;">nova-scheduler</tspan></tspan></text></g></g><g id="SvgjsG1274" transform="translate(1064.2725544443601,197.89686045809208)"><path id="SvgjsPath1275" d="M 0 4Q 0 0 4 0L 35.25010949562152 0Q 39.25010949562152 0 39.25010949562152 4L 39.25010949562152 609.3031517489392Q 39.25010949562152 613.3031517489392 35.25010949562152 613.3031517489392L 4 613.3031517489392Q 0 613.3031517489392 0 609.3031517489392L 0 4Z" stroke="rgba(153,0,0,1)" stroke-width="2" fill-opacity="1" fill="#ffffff"></path></g><g id="SvgjsG1276" transform="translate(109.84029996897786,201.1928516325558)"><path id="SvgjsPath1277" d="M 0 0L 176 0L 176 55L 0 55Z" stroke="none" fill="none"></path><g id="SvgjsG1278"><text id="SvgjsText1279" font-family="微软雅黑" text-anchor="middle" font-size="13px" width="176px" fill="#323232" font-weight="400" align="middle" lineHeight="125%" anchor="middle" family="微软雅黑" size="13px" weight="400" font-style="" opacity="1" y="8.375" transform="rotate(0)"><tspan id="SvgjsTspan1280" dy="16" x="88"><tspan id="SvgjsTspan1281" style="text-decoration:;">用户使用Horizon或CLI发起一</tspan></tspan><tspan id="SvgjsTspan1282" dy="16" x="88"><tspan id="SvgjsTspan1283" style="text-decoration:;">个创建虚机的命令</tspan></tspan></text></g></g><g id="SvgjsG1284"><path id="SvgjsPath1285" d="M349.0124969482422 220.34531077209766L378.0124969482422 220.34531077209766L378.0124969482422 292.1999969482422L351.6124969482422 292.1999969482422" stroke="#323232" stroke-width="2" fill="none" marker-end="url(#SvgjsMarker1286)"></path></g><g id="SvgjsG1288" transform="translate(388.25797807065976,246.8002175866477)"><path id="SvgjsPath1289" d="M 0 0L 129.50903775516485 0L 129.50903775516485 38.80000305175781L 0 38.80000305175781Z" stroke="none" fill="none"></path><g id="SvgjsG1290"><text id="SvgjsText1291" font-family="微软雅黑" text-anchor="start" font-size="13px" width="130px" fill="#323232" font-weight="400" align="middle" lineHeight="125%" anchor="start" family="微软雅黑" size="13px" weight="400" font-style="" opacity="1" y="-32.224998474121094" transform="rotate(0)"><tspan id="SvgjsTspan1292" dy="16" x="0"><tspan id="SvgjsTspan1293" style="text-decoration:;">1.调用create()方法2.</tspan></tspan><tspan id="SvgjsTspan1294" dy="16" x="0"><tspan id="SvgjsTspan1295" style="text-decoration:;">验证用户身份和权限</tspan></tspan><tspan id="SvgjsTspan1296" dy="16" x="0"><tspan id="SvgjsTspan1297" style="text-decoration:;">3.处理入参</tspan></tspan><tspan id="SvgjsTspan1298" dy="16" x="0"><tspan id="SvgjsTspan1299" style="text-decoration:;">4.获取网络和flavor_id</tspan></tspan><tspan id="SvgjsTspan1300" dy="16" x="0"><tspan id="SvgjsTspan1301" style="text-decoration:;">等参数</tspan></tspan><tspan id="SvgjsTspan1302" dy="16" x="0"><tspan id="SvgjsTspan1303" style="text-decoration:;"> </tspan></tspan></text></g></g><g id="SvgjsG1304"><path id="SvgjsPath1305" d="M608.0124969482422 332.20000076293945L637.0124969482422 332.20000076293945L637.0124969482422 375.20000076293945L610.6124969482422 375.20000076293945" stroke="#323232" stroke-width="2" fill="none" marker-end="url(#SvgjsMarker1306)"></path></g><g id="SvgjsG1308" transform="translate(644.3859603149035,336.46572016908937)"><path id="SvgjsPath1309" d="M 0 0L 170.60750823190438 0L 170.60750823190438 33.19956024906787L 0 33.19956024906787Z" stroke="none" fill="none"></path><g id="SvgjsG1310"><text id="SvgjsText1311" font-family="微软雅黑" text-anchor="start" font-size="13px" width="171px" fill="#323232" font-weight="400" align="middle" lineHeight="125%" anchor="start" family="微软雅黑" size="13px" weight="400" font-style="" opacity="1" y="-10.525219875466064" transform="rotate(0)"><tspan id="SvgjsTspan1312" dy="16" x="0"><tspan id="SvgjsTspan1313" style="text-decoration:;">1.参数校验</tspan></tspan><tspan id="SvgjsTspan1314" dy="16" x="0"><tspan id="SvgjsTspan1315" style="text-decoration:;">2.获取image，虚机等信息。</tspan></tspan><tspan id="SvgjsTspan1316" dy="16" x="0"><tspan id="SvgjsTspan1317" style="text-decoration:;">3.构造调度时使用的过滤器</tspan></tspan></text></g></g><g id="SvgjsG1318"><path id="SvgjsPath1319" d="M605.8125 409L710.3125 409L710.3125 409L813.8125 409" stroke="#323232" stroke-width="2" fill="none" marker-end="url(#SvgjsMarker1320)"></path></g><g id="SvgjsG1322" transform="translate(608.9934685468079,419.20000076293945)"><path id="SvgjsPath1323" d="M 0 0L 206 0L 206 38L 0 38Z" stroke="none" fill="none"></path><g id="SvgjsG1324"><text id="SvgjsText1325" font-family="微软雅黑" text-anchor="middle" font-size="13px" width="206px" fill="#323232" font-weight="400" align="middle" lineHeight="125%" anchor="middle" family="微软雅黑" size="13px" weight="400" font-style="" opacity="1" y="-8.125" transform="rotate(0)"><tspan id="SvgjsTspan1326" dy="16" x="103"><tspan id="SvgjsTspan1327" style="text-decoration:;">通过RPC异步地调用nova-</tspan></tspan><tspan id="SvgjsTspan1328" dy="16" x="103"><tspan id="SvgjsTspan1329" style="text-decoration:;">conductor中的</tspan></tspan><tspan id="SvgjsTspan1330" dy="16" x="103"><tspan id="SvgjsTspan1331" style="text-decoration:;">schedule_and_build_instances</tspan></tspan></text></g></g><g id="SvgjsG1332"><path id="SvgjsPath1333" d="M348.8125 324.20000076293945L458.0999711002157 324.20000076293945L458.0999711002157 324.20000076293945L568.3874422004315 324.20000076293945" stroke="#323232" stroke-width="2" fill="none" marker-end="url(#SvgjsMarker1334)"></path></g><g id="SvgjsG1336" transform="translate(369.21690444929686,333.0655002936233)"><path id="SvgjsPath1337" d="M 0 0L 178 0L 178 40L 0 40Z" stroke="none" fill="none"></path><g id="SvgjsG1338"><text id="SvgjsText1339" font-family="微软雅黑" text-anchor="middle" font-size="13px" width="178px" fill="#323232" font-weight="400" align="middle" lineHeight="125%" anchor="middle" family="微软雅黑" size="13px" weight="400" font-style="" opacity="1" y="0.875" transform="rotate(0)"><tspan id="SvgjsTspan1340" dy="16" x="89"><tspan id="SvgjsTspan1341" style="text-decoration:;">直接调用compute/api中</tspan></tspan><tspan id="SvgjsTspan1342" dy="16" x="89"><tspan id="SvgjsTspan1343" style="text-decoration:;">create方法</tspan></tspan></text></g></g><g id="SvgjsG1344"><path id="SvgjsPath1345" d="M853.8125 429L958.8125 429L958.8125 429L1061.2125 429" stroke="#323232" stroke-width="2" fill="none" marker-end="url(#SvgjsMarker1346)"></path></g><g id="SvgjsG1348" transform="translate(885.8669270590098,437)"><path id="SvgjsPath1349" d="M 0 0L 147 0L 147 39L 0 39Z" stroke="none" fill="none"></path><g id="SvgjsG1350"><text id="SvgjsText1351" font-family="微软雅黑" text-anchor="middle" font-size="13px" width="147px" fill="#323232" font-weight="400" align="middle" lineHeight="125%" anchor="middle" family="微软雅黑" size="13px" weight="400" font-style="" opacity="1" y="8.875" transform="rotate(0)"><tspan id="SvgjsTspan1352" dy="16" x="73.5"><tspan id="SvgjsTspan1353" style="text-decoration:;">_schedule_instances</tspan></tspan></text></g></g><g id="SvgjsG1354"><path id="SvgjsPath1355" d="M1104.0372659730688 437L1133.0372659730688 437L1133.0372659730688 473L1106.6372659730687 473" stroke="#323232" stroke-width="2" fill="none" marker-end="url(#SvgjsMarker1356)"></path></g><g id="SvgjsG1358" transform="translate(1139.8640343205088,436.5)"><path id="SvgjsPath1359" d="M 0 0L 120 0L 120 40L 0 40Z" stroke="none" fill="none"></path><g id="SvgjsG1360"><text id="SvgjsText1361" font-family="微软雅黑" text-anchor="start" font-size="13px" width="120px" fill="#323232" font-weight="400" align="middle" lineHeight="125%" anchor="start" family="微软雅黑" size="13px" weight="400" font-style="" opacity="1" y="0.875" transform="rotate(0)"><tspan id="SvgjsTspan1362" dy="16" x="0"><tspan id="SvgjsTspan1363" style="text-decoration:;">1.过滤</tspan></tspan><tspan id="SvgjsTspan1364" dy="16" x="0"><tspan id="SvgjsTspan1365" style="text-decoration:;">2.按权重排名</tspan></tspan></text></g></g><g id="SvgjsG1366"><path id="SvgjsPath1367" d="M1063.8125 512.1999969482422L959.3125 512.1999969482422L959.3125 512.1999969482422L855.8125 512.1999969482422" stroke-dasharray="3,3" stroke="#323232" stroke-width="2" fill="none" marker-end="url(#SvgjsMarker1368)"></path></g><g id="SvgjsG1370" transform="translate(899.3669270590099,524)"><path id="SvgjsPath1371" d="M 0 0L 120 0L 120 40L 0 40Z" stroke="none" fill="none"></path><g id="SvgjsG1372"><text id="SvgjsText1373" font-family="微软雅黑" text-anchor="middle" font-size="13px" width="120px" fill="#323232" font-weight="400" align="middle" lineHeight="125%" anchor="middle" family="微软雅黑" size="13px" weight="400" font-style="" opacity="1" y="0.875" transform="rotate(0)"><tspan id="SvgjsTspan1374" dy="16" x="60"><tspan id="SvgjsTspan1375" style="text-decoration:;">返回调度后得到的虚</tspan></tspan><tspan id="SvgjsTspan1376" dy="16" x="60"><tspan id="SvgjsTspan1377" style="text-decoration:;">机的Host_id</tspan></tspan></text></g></g><g id="SvgjsG1378"><path id="SvgjsPath1379" d="M854.6125068664551 572.1999969482422L883.6125068664551 572.1999969482422L883.6125068664551 604.1999969482422L857.2125068664551 604.1999969482422" stroke="#323232" stroke-width="2" fill="none" marker-end="url(#SvgjsMarker1380)"></path></g><g id="SvgjsG1382" transform="translate(890.4311840638329,567.9356514230087)"><path id="SvgjsPath1383" d="M 0 0L 120 0L 120 40L 0 40Z" stroke="none" fill="none"></path><g id="SvgjsG1384"><text id="SvgjsText1385" font-family="微软雅黑" text-anchor="middle" font-size="13px" width="120px" fill="#323232" font-weight="400" align="middle" lineHeight="125%" anchor="middle" family="微软雅黑" size="13px" weight="400" font-style="" opacity="1" y="0.875" transform="rotate(0)"><tspan id="SvgjsTspan1386" dy="16" x="60"><tspan id="SvgjsTspan1387" style="text-decoration:;">与DB交互申请虚机</tspan></tspan><tspan id="SvgjsTspan1388" dy="16" x="60"><tspan id="SvgjsTspan1389" style="text-decoration:;">所需的各项资源</tspan></tspan></text></g></g><g id="SvgjsG1390"><path id="SvgjsPath1391" d="M814.9934685468079 622.1999969482422L710.902984273404 622.1999969482422L710.902984273404 622.1999969482422L608.8125 622.1999969482422" stroke="#323232" stroke-width="2" fill="none" marker-end="url(#SvgjsMarker1392)"></path></g><g id="SvgjsG1394" transform="translate(620.5934784650208,632.9999923706055)"><path id="SvgjsPath1395" d="M 0 0L 186.3999900817871 0L 186.3999900817871 36.00000762939453L 0 36.00000762939453Z" stroke="none" fill="none"></path><g id="SvgjsG1396"><text id="SvgjsText1397" font-family="微软雅黑" text-anchor="middle" font-size="13px" width="187px" fill="#323232" font-weight="400" align="middle" lineHeight="125%" anchor="middle" family="微软雅黑" size="13px" weight="400" font-style="" opacity="1" y="-9.124996185302734" transform="rotate(0)"><tspan id="SvgjsTspan1398" dy="16" x="93.5"><tspan id="SvgjsTspan1399" style="text-decoration:;">通过RPC异步地调用nova-</tspan></tspan><tspan id="SvgjsTspan1400" dy="16" x="93.5"><tspan id="SvgjsTspan1401" style="text-decoration:;">compute中的</tspan></tspan><tspan id="SvgjsTspan1402" dy="16" x="93.5"><tspan id="SvgjsTspan1403" style="text-decoration:;">build_and_run_instance方法</tspan></tspan></text></g></g><g id="SvgjsG1404" transform="translate(568.3874422004315,190.89686045809208)"><path id="SvgjsPath1405" d="M 0 4Q 0 0 4 0L 35.25010949562152 0Q 39.25010949562152 0 39.25010949562152 4L 39.25010949562152 603.3031517489392Q 39.25010949562152 607.3031517489392 35.25010949562152 607.3031517489392L 4 607.3031517489392Q 0 607.3031517489392 0 603.3031517489392L 0 4Z" stroke="rgba(153,0,0,1)" stroke-width="2" fill-opacity="1" fill="#ffffff"></path></g><g id="SvgjsG1406"><path id="SvgjsPath1407" d="M608.0124969482422 688.1999969482422L637.0124969482422 688.1999969482422L637.0124969482422 736.1999969482422L610.6124969482422 736.1999969482422" stroke="#323232" stroke-width="2" fill="none" marker-end="url(#SvgjsMarker1408)"></path></g><g id="SvgjsG1410" transform="translate(646.4049887163378,692.4000091552734)"><path id="SvgjsPath1411" d="M 0 0L 160.58847983047008 0L 160.58847983047008 40.19999694824219L 0 40.19999694824219Z" stroke="none" fill="none"></path><g id="SvgjsG1412"><text id="SvgjsText1413" font-family="微软雅黑" text-anchor="start" font-size="13px" width="161px" fill="#323232" font-weight="400" align="middle" lineHeight="125%" anchor="start" family="微软雅黑" size="13px" weight="400" font-style="" opacity="1" y="-7.025001525878906" transform="rotate(0)"><tspan id="SvgjsTspan1414" dy="16" x="0"><tspan id="SvgjsTspan1415" style="text-decoration:;">1.更新和保存虚机状态</tspan></tspan><tspan id="SvgjsTspan1416" dy="16" x="0"><tspan id="SvgjsTspan1417" style="text-decoration:;">2.调用driver.py中的spawn</tspan></tspan><tspan id="SvgjsTspan1418" dy="16" x="0"><tspan id="SvgjsTspan1419" style="text-decoration:;">方法创建虚机</tspan></tspan></text></g></g><g id="SvgjsG1420" transform="translate(814.9934685468079,190.89686045809208)"><path id="SvgjsPath1421" d="M 0 4Q 0 0 4 0L 35.25010949562152 0Q 39.25010949562152 0 39.25010949562152 4L 39.25010949562152 613.3031517489392Q 39.25010949562152 617.3031517489392 35.25010949562152 617.3031517489392L 4 617.3031517489392Q 0 617.3031517489392 0 613.3031517489392L 0 4Z" stroke="rgba(153,0,0,1)" stroke-width="2" fill-opacity="1" fill="#ffffff"></path></g><g id="SvgjsG1422" transform="translate(308.7962572025407,190.89686045809208)"><path id="SvgjsPath1423" d="M 0 4Q 0 0 4 0L 35.25010949562152 0Q 39.25010949562152 0 39.25010949562152 4L 39.25010949562152 603.3031517489392Q 39.25010949562152 607.3031517489392 35.25010949562152 607.3031517489392L 4 607.3031517489392Q 0 607.3031517489392 0 603.3031517489392L 0 4Z" stroke="rgba(153,0,0,1)" stroke-width="2" fill-opacity="1" fill="#ffffff"></path></g></svg>