<svg id="SvgjsSvg1138" width="915" height="502" xmlns="http://www.w3.org/2000/svg" version="1.1" xmlns:xlink="http://www.w3.org/1999/xlink" xmlns:svgjs="http://svgjs.com/svgjs"><defs id="SvgjsDefs1139"><marker id="SvgjsMarker1236" markerWidth="14" markerHeight="10" refX="10" refY="5" viewBox="0 0 14 10" orient="auto" markerUnits="userSpaceOnUse" stroke-dasharray="0,0"><path id="SvgjsPath1237" d="M0,0 L14,5 L0,10 L0,0" fill="#323232" stroke="#323232" stroke-width="1"></path></marker><marker id="SvgjsMarker1240" markerWidth="14" markerHeight="10" refX="10" refY="5" viewBox="0 0 14 10" orient="auto" markerUnits="userSpaceOnUse" stroke-dasharray="0,0"><path id="SvgjsPath1241" d="M0,0 L14,5 L0,10 L0,0" fill="#323232" stroke="#323232" stroke-width="1"></path></marker><marker id="SvgjsMarker1244" markerWidth="14" markerHeight="10" refX="10" refY="5" viewBox="0 0 14 10" orient="auto" markerUnits="userSpaceOnUse" stroke-dasharray="0,0"><path id="SvgjsPath1245" d="M0,0 L14,5 L0,10 L0,0" fill="#323232" stroke="#323232" stroke-width="1"></path></marker><marker id="SvgjsMarker1248" markerWidth="14" markerHeight="10" refX="10" refY="5" viewBox="0 0 14 10" orient="auto" markerUnits="userSpaceOnUse" stroke-dasharray="0,0"><path id="SvgjsPath1249" d="M0,0 L14,5 L0,10 L0,0" fill="#323232" stroke="#323232" stroke-width="1"></path></marker><marker id="SvgjsMarker1252" markerWidth="14" markerHeight="10" refX="10" refY="5" viewBox="0 0 14 10" orient="auto" markerUnits="userSpaceOnUse" stroke-dasharray="0,0"><path id="SvgjsPath1253" d="M0,0 L14,5 L0,10 L0,0" fill="#323232" stroke="#323232" stroke-width="1"></path></marker><marker id="SvgjsMarker1256" markerWidth="14" markerHeight="10" refX="10" refY="5" viewBox="0 0 14 10" orient="auto" markerUnits="userSpaceOnUse" stroke-dasharray="0,0"><path id="SvgjsPath1257" d="M0,0 L14,5 L0,10 L0,0" fill="#323232" stroke="#323232" stroke-width="1"></path></marker><marker id="SvgjsMarker1260" markerWidth="14" markerHeight="10" refX="10" refY="5" viewBox="0 0 14 10" orient="auto" markerUnits="userSpaceOnUse" stroke-dasharray="0,0"><path id="SvgjsPath1261" d="M0,0 L14,5 L0,10 L0,0" fill="#323232" stroke="#323232" stroke-width="1"></path></marker><marker id="SvgjsMarker1264" markerWidth="14" markerHeight="10" refX="10" refY="5" viewBox="0 0 14 10" orient="auto" markerUnits="userSpaceOnUse" stroke-dasharray="0,0"><path id="SvgjsPath1265" d="M0,0 L14,5 L0,10 L0,0" fill="#323232" stroke="#323232" stroke-width="1"></path></marker><marker id="SvgjsMarker1268" markerWidth="14" markerHeight="10" refX="10" refY="5" viewBox="0 0 14 10" orient="auto" markerUnits="userSpaceOnUse" stroke-dasharray="0,0"><path id="SvgjsPath1269" d="M0,0 L14,5 L0,10 L0,0" fill="#323232" stroke="#323232" stroke-width="1"></path></marker></defs><g id="SvgjsG1140" transform="translate(25,24.99999237060547)"><path id="SvgjsPath1141" d="M 0 4Q 0 0 4 0L 231 0Q 235 0 235 4L 235 448Q 235 452 231 452L 4 452Q 0 452 0 448Z" stroke="rgba(50,50,50,1)" stroke-width="2" fill-opacity="1" fill="#ffffff"></path><g id="SvgjsG1142"><text id="SvgjsText1143" font-family="微软雅黑" text-anchor="middle" font-size="13px" width="215px" fill="#323232" font-weight="400" align="middle" lineHeight="125%" anchor="middle" family="微软雅黑" size="13px" weight="400" font-style="" opacity="1" y="215.375" transform="rotate(0)"></text></g></g><g id="SvgjsG1144" transform="translate(54,69.99999237060547)"><path id="SvgjsPath1145" d="M 0 4Q 0 0 4 0L 175 0Q 179 0 179 4L 179 81Q 179 85 175 85L 4 85Q 0 85 0 81Z" stroke="rgba(50,50,50,1)" stroke-width="2" fill-opacity="1" fill="#ffffff"></path><g id="SvgjsG1146"><text id="SvgjsText1147" font-family="微软雅黑" text-anchor="middle" font-size="13px" width="159px" fill="#323232" font-weight="400" align="middle" lineHeight="125%" anchor="middle" family="微软雅黑" size="13px" weight="400" font-style="" opacity="1" y="15.375" transform="rotate(0)"><tspan id="SvgjsTspan1148" dy="16" x="89.5"><tspan id="SvgjsTspan1149" style="text-decoration:;">nova\api\openstack\com</tspan></tspan><tspan id="SvgjsTspan1150" dy="16" x="89.5"><tspan id="SvgjsTspan1151" style="text-decoration:;">pute\servers.py::</tspan></tspan><tspan id="SvgjsTspan1152" dy="16" x="89.5"><tspan id="SvgjsTspan1153" style="text-decoration:;">create</tspan></tspan></text></g></g><g id="SvgjsG1154" transform="translate(54,208.49999237060547)"><path id="SvgjsPath1155" d="M 0 4Q 0 0 4 0L 175 0Q 179 0 179 4L 179 81Q 179 85 175 85L 4 85Q 0 85 0 81Z" stroke="rgba(50,50,50,1)" stroke-width="2" fill-opacity="1" fill="#ffffff"></path><g id="SvgjsG1156"><text id="SvgjsText1157" font-family="微软雅黑" text-anchor="middle" font-size="13px" width="159px" fill="#323232" font-weight="400" align="middle" lineHeight="125%" anchor="middle" family="微软雅黑" size="13px" weight="400" font-style="" opacity="1" y="23.375" transform="rotate(0)"><tspan id="SvgjsTspan1158" dy="16" x="89.5"><tspan id="SvgjsTspan1159" style="text-decoration:;">nova\compute\api.py::</tspan></tspan><tspan id="SvgjsTspan1160" dy="16" x="89.5"><tspan id="SvgjsTspan1161" style="text-decoration:;">create</tspan></tspan></text></g></g><g id="SvgjsG1162" transform="translate(54,341.99999237060547)"><path id="SvgjsPath1163" d="M 0 4Q 0 0 4 0L 175 0Q 179 0 179 4L 179 81Q 179 85 175 85L 4 85Q 0 85 0 81Z" stroke="rgba(50,50,50,1)" stroke-width="2" fill-opacity="1" fill="#ffffff"></path><g id="SvgjsG1164"><text id="SvgjsText1165" font-family="微软雅黑" text-anchor="middle" font-size="13px" width="159px" fill="#323232" font-weight="400" align="middle" lineHeight="125%" anchor="middle" family="微软雅黑" size="13px" weight="400" font-style="" opacity="1" y="23.375" transform="rotate(0)"><tspan id="SvgjsTspan1166" dy="16" x="89.5"><tspan id="SvgjsTspan1167" style="text-decoration:;">nova\compute\api.py::</tspan></tspan><tspan id="SvgjsTspan1168" dy="16" x="89.5"><tspan id="SvgjsTspan1169" style="text-decoration:;">_create_instance</tspan></tspan></text></g></g><g id="SvgjsG1170" transform="translate(340,24.99999237060547)"><path id="SvgjsPath1171" d="M 0 4Q 0 0 4 0L 231 0Q 235 0 235 4L 235 448Q 235 452 231 452L 4 452Q 0 452 0 448Z" stroke="rgba(50,50,50,1)" stroke-width="2" fill-opacity="1" fill="#ffffff"></path><g id="SvgjsG1172"><text id="SvgjsText1173" font-family="微软雅黑" text-anchor="middle" font-size="13px" width="215px" fill="#323232" font-weight="400" align="middle" lineHeight="125%" anchor="middle" family="微软雅黑" size="13px" weight="400" font-style="" opacity="1" y="215.375" transform="rotate(0)"></text></g></g><g id="SvgjsG1174" transform="translate(354,69.99999237060547)"><path id="SvgjsPath1175" d="M 0 4Q 0 0 4 0L 203 0Q 207 0 207 4L 207 81Q 207 85 203 85L 4 85Q 0 85 0 81Z" stroke="rgba(50,50,50,1)" stroke-width="2" fill-opacity="1" fill="#ffffff"></path><g id="SvgjsG1176"><text id="SvgjsText1177" font-family="微软雅黑" text-anchor="middle" font-size="13px" width="187px" fill="#323232" font-weight="400" align="middle" lineHeight="125%" anchor="middle" family="微软雅黑" size="13px" weight="400" font-style="" opacity="1" y="23.375" transform="rotate(0)"><tspan id="SvgjsTspan1178" dy="16" x="103.5"><tspan id="SvgjsTspan1179" style="text-decoration:;">nova\conductor\api.py::</tspan></tspan><tspan id="SvgjsTspan1180" dy="16" x="103.5"><tspan id="SvgjsTspan1181" style="text-decoration:;">schedule_and_build_instances</tspan></tspan></text></g></g><g id="SvgjsG1182" transform="translate(354,208.49999237060547)"><path id="SvgjsPath1183" d="M 0 4Q 0 0 4 0L 207 0Q 211 0 211 4L 211 81Q 211 85 207 85L 4 85Q 0 85 0 81Z" stroke="rgba(50,50,50,1)" stroke-width="2" fill-opacity="1" fill="#ffffff"></path><g id="SvgjsG1184"><text id="SvgjsText1185" font-family="微软雅黑" text-anchor="middle" font-size="13px" width="191px" fill="#323232" font-weight="400" align="middle" lineHeight="125%" anchor="middle" family="微软雅黑" size="13px" weight="400" font-style="" opacity="1" y="23.375" transform="rotate(0)"><tspan id="SvgjsTspan1186" dy="16" x="105.5"><tspan id="SvgjsTspan1187" style="text-decoration:;">nova\conductor\rpcapi.py::</tspan></tspan><tspan id="SvgjsTspan1188" dy="16" x="105.5"><tspan id="SvgjsTspan1189" style="text-decoration:;">schedule_and_build_instances</tspan></tspan></text></g></g><g id="SvgjsG1190" transform="translate(354,341.99999237060547)"><path id="SvgjsPath1191" d="M 0 4Q 0 0 4 0L 207 0Q 211 0 211 4L 211 71.20000457763672Q 211 75.20000457763672 207 75.20000457763672L 4 75.20000457763672Q 0 75.20000457763672 0 71.20000457763672Z" stroke="rgba(50,50,50,1)" stroke-width="2" fill-opacity="1" fill="#ffffff"></path><g id="SvgjsG1192"><text id="SvgjsText1193" font-family="微软雅黑" text-anchor="middle" font-size="13px" width="191px" fill="#323232" font-weight="400" align="middle" lineHeight="125%" anchor="middle" family="微软雅黑" size="13px" weight="400" font-style="" opacity="1" y="18.47500228881836" transform="rotate(0)"><tspan id="SvgjsTspan1194" dy="16" x="105.5"><tspan id="SvgjsTspan1195" style="text-decoration:;">nova\conductor\manager.py::</tspan></tspan><tspan id="SvgjsTspan1196" dy="16" x="105.5"><tspan id="SvgjsTspan1197" style="text-decoration:;">schedule_and_build_instances</tspan></tspan></text></g></g><g id="SvgjsG1198" transform="translate(655,24.99999237060547)"><path id="SvgjsPath1199" d="M 0 4Q 0 0 4 0L 231 0Q 235 0 235 4L 235 448Q 235 452 231 452L 4 452Q 0 452 0 448Z" stroke="rgba(50,50,50,1)" stroke-width="2" fill-opacity="1" fill="#ffffff"></path><g id="SvgjsG1200"><text id="SvgjsText1201" font-family="微软雅黑" text-anchor="middle" font-size="13px" width="215px" fill="#323232" font-weight="400" align="middle" lineHeight="125%" anchor="middle" family="微软雅黑" size="13px" weight="400" font-style="" opacity="1" y="215.375" transform="rotate(0)"></text></g></g><g id="SvgjsG1202" transform="translate(669,47.99999237060547)"><path id="SvgjsPath1203" d="M 0 4Q 0 0 4 0L 203 0Q 207 0 207 4L 207 74.20000457763672Q 207 78.20000457763672 203 78.20000457763672L 4 78.20000457763672Q 0 78.20000457763672 0 74.20000457763672Z" stroke="rgba(50,50,50,1)" stroke-width="2" fill-opacity="1" fill="#ffffff"></path><g id="SvgjsG1204"><text id="SvgjsText1205" font-family="微软雅黑" text-anchor="middle" font-size="13px" width="187px" fill="#323232" font-weight="400" align="middle" lineHeight="125%" anchor="middle" family="微软雅黑" size="13px" weight="400" font-style="" opacity="1" y="19.97500228881836" transform="rotate(0)"><tspan id="SvgjsTspan1206" dy="16" x="103.5"><tspan id="SvgjsTspan1207" style="text-decoration:;">nova\conductor\rpcapi.py::</tspan></tspan><tspan id="SvgjsTspan1208" dy="16" x="103.5"><tspan id="SvgjsTspan1209" style="text-decoration:;">build_and_run_instance</tspan></tspan></text></g></g><g id="SvgjsG1210" transform="translate(669,154.99999237060547)"><path id="SvgjsPath1211" d="M 0 4Q 0 0 4 0L 203 0Q 207 0 207 4L 207 76.20000457763672Q 207 80.20000457763672 203 80.20000457763672L 4 80.20000457763672Q 0 80.20000457763672 0 76.20000457763672Z" stroke="rgba(50,50,50,1)" stroke-width="2" fill-opacity="1" fill="#ffffff"></path><g id="SvgjsG1212"><text id="SvgjsText1213" font-family="微软雅黑" text-anchor="middle" font-size="13px" width="187px" fill="#323232" font-weight="400" align="middle" lineHeight="125%" anchor="middle" family="微软雅黑" size="13px" weight="400" font-style="" opacity="1" y="20.97500228881836" transform="rotate(0)"><tspan id="SvgjsTspan1214" dy="16" x="103.5"><tspan id="SvgjsTspan1215" style="text-decoration:;">nova\conductor\manager.py::</tspan></tspan><tspan id="SvgjsTspan1216" dy="16" x="103.5"><tspan id="SvgjsTspan1217" style="text-decoration:;">build_and_run_instance</tspan></tspan></text></g></g><g id="SvgjsG1218" transform="translate(669,261.99999237060547)"><path id="SvgjsPath1219" d="M 0 4Q 0 0 4 0L 203 0Q 207 0 207 4L 207 76Q 207 80 203 80L 4 80Q 0 80 0 76Z" stroke="rgba(50,50,50,1)" stroke-width="2" fill-opacity="1" fill="#ffffff"></path><g id="SvgjsG1220"><text id="SvgjsText1221" font-family="微软雅黑" text-anchor="middle" font-size="13px" width="187px" fill="#323232" font-weight="400" align="middle" lineHeight="125%" anchor="middle" family="微软雅黑" size="13px" weight="400" font-style="" opacity="1" y="20.875" transform="rotate(0)"><tspan id="SvgjsTspan1222" dy="16" x="103.5"><tspan id="SvgjsTspan1223" style="text-decoration:;">nova\conductor\manager.py::</tspan></tspan><tspan id="SvgjsTspan1224" dy="16" x="103.5"><tspan id="SvgjsTspan1225" style="text-decoration:;">do_build_and_run_instance</tspan></tspan></text></g></g><g id="SvgjsG1226" transform="translate(669,368.99999237060547)"><path id="SvgjsPath1227" d="M 0 4Q 0 0 4 0L 203 0Q 207 0 207 4L 207 77.20000457763672Q 207 81.20000457763672 203 81.20000457763672L 4 81.20000457763672Q 0 81.20000457763672 0 77.20000457763672Z" stroke="rgba(50,50,50,1)" stroke-width="2" fill-opacity="1" fill="#ffffff"></path><g id="SvgjsG1228"><text id="SvgjsText1229" font-family="微软雅黑" text-anchor="middle" font-size="13px" width="187px" fill="#323232" font-weight="400" align="middle" lineHeight="125%" anchor="middle" family="微软雅黑" size="13px" weight="400" font-style="" opacity="1" y="21.47500228881836" transform="rotate(0)"><tspan id="SvgjsTspan1230" dy="16" x="103.5"><tspan id="SvgjsTspan1231" style="text-decoration:;">nova\conductor\manager.py::</tspan></tspan><tspan id="SvgjsTspan1232" dy="16" x="103.5"><tspan id="SvgjsTspan1233" style="text-decoration:;">_build_and_run_instance</tspan></tspan></text></g></g><g id="SvgjsG1234"><path id="SvgjsPath1235" d="M143.5 155.99999237060547L143.5 181.74999237060547L143.5 181.74999237060547L143.5 204.89999237060547" stroke="#323232" stroke-width="2" fill="none" marker-end="url(#SvgjsMarker1236)"></path></g><g id="SvgjsG1238"><path id="SvgjsPath1239" d="M143.5 294.49999237060547L143.5 317.74999237060547L143.5 317.74999237060547L143.5 338.39999237060545" stroke="#323232" stroke-width="2" fill="none" marker-end="url(#SvgjsMarker1240)"></path></g><g id="SvgjsG1242"><path id="SvgjsPath1243" d="M234 384.49999237060547L293.5 384.49999237060547L293.5 112.49999237060547L350.4 112.49999237060547" stroke="#323232" stroke-width="2" fill="none" marker-end="url(#SvgjsMarker1244)"></path></g><g id="SvgjsG1246"><path id="SvgjsPath1247" d="M457.5 155.99999237060547L457.5 181.74999237060547L457.5 181.74999237060547L457.5 204.89999237060547" stroke="#323232" stroke-width="2" fill="none" marker-end="url(#SvgjsMarker1248)"></path></g><g id="SvgjsG1250"><path id="SvgjsPath1251" d="M459.5 294.49999237060547L459.5 317.74999237060547L459.5 317.74999237060547L459.5 338.39999237060545" stroke="#323232" stroke-width="2" fill="none" marker-end="url(#SvgjsMarker1252)"></path></g><g id="SvgjsG1254"><path id="SvgjsPath1255" d="M566 379.5999946594238L617 379.5999946594238L617 87.09999465942383L665.4 87.09999465942383" stroke="#323232" stroke-width="2" fill="none" marker-end="url(#SvgjsMarker1256)"></path></g><g id="SvgjsG1258"><path id="SvgjsPath1259" d="M772.5 127.19999694824219L772.5 140.59999465942383L772.5 140.59999465942383L772.5 151.39999237060547" stroke="#323232" stroke-width="2" fill="none" marker-end="url(#SvgjsMarker1260)"></path></g><g id="SvgjsG1262"><path id="SvgjsPath1263" d="M772.5 236.1999969482422L772.5 248.59999465942383L772.5 248.59999465942383L772.5 258.39999237060545" stroke="#323232" stroke-width="2" fill="none" marker-end="url(#SvgjsMarker1264)"></path></g><g id="SvgjsG1266"><path id="SvgjsPath1267" d="M772.5 342.99999237060547L772.5 355.49999237060547L772.5 355.49999237060547L772.5 365.39999237060545" stroke="#323232" stroke-width="2" fill="none" marker-end="url(#SvgjsMarker1268)"></path></g></svg>