<svg id="SvgjsSvg1006" width="736.0000305175781" height="549.0000076293945" xmlns="http://www.w3.org/2000/svg" version="1.1" xmlns:xlink="http://www.w3.org/1999/xlink" xmlns:svgjs="http://svgjs.com/svgjs"><defs id="SvgjsDefs1007"><marker id="SvgjsMarker1070" markerWidth="14" markerHeight="10" refX="10" refY="5" viewBox="0 0 14 10" orient="auto" markerUnits="userSpaceOnUse" stroke-dasharray="0,0"><path id="SvgjsPath1071" d="M0,0 L14,5 L0,10 L0,0" fill="#323232" stroke="#323232" stroke-width="1"></path></marker><marker id="SvgjsMarker1074" markerWidth="14" markerHeight="10" refX="10" refY="5" viewBox="0 0 14 10" orient="auto" markerUnits="userSpaceOnUse" stroke-dasharray="0,0"><path id="SvgjsPath1075" d="M0,0 L14,5 L0,10 L0,0" fill="#323232" stroke="#323232" stroke-width="1"></path></marker><marker id="SvgjsMarker1078" markerWidth="14" markerHeight="10" refX="10" refY="5" viewBox="0 0 14 10" orient="auto" markerUnits="userSpaceOnUse" stroke-dasharray="0,0"><path id="SvgjsPath1079" d="M0,0 L14,5 L0,10 L0,0" fill="#323232" stroke="#323232" stroke-width="1"></path></marker><marker id="SvgjsMarker1082" markerWidth="14" markerHeight="10" refX="10" refY="5" viewBox="0 0 14 10" orient="auto" markerUnits="userSpaceOnUse" stroke-dasharray="0,0"><path id="SvgjsPath1083" d="M0,0 L14,5 L0,10 L0,0" fill="#323232" stroke="#323232" stroke-width="1"></path></marker><marker id="SvgjsMarker1086" markerWidth="14" markerHeight="10" refX="10" refY="5" viewBox="0 0 14 10" orient="auto" markerUnits="userSpaceOnUse" stroke-dasharray="0,0"><path id="SvgjsPath1087" d="M0,0 L14,5 L0,10 L0,0" fill="#323232" stroke="#323232" stroke-width="1"></path></marker><marker id="SvgjsMarker1090" markerWidth="14" markerHeight="10" refX="10" refY="5" viewBox="0 0 14 10" orient="auto" markerUnits="userSpaceOnUse" stroke-dasharray="0,0"><path id="SvgjsPath1091" d="M0,0 L14,5 L0,10 L0,0" fill="#323232" stroke="#323232" stroke-width="1"></path></marker><marker id="SvgjsMarker1094" markerWidth="14" markerHeight="10" refX="10" refY="5" viewBox="0 0 14 10" orient="auto" markerUnits="userSpaceOnUse" stroke-dasharray="0,0"><path id="SvgjsPath1095" d="M0,0 L14,5 L0,10 L0,0" fill="#323232" stroke="#323232" stroke-width="1"></path></marker><marker id="SvgjsMarker1098" markerWidth="14" markerHeight="10" refX="10" refY="5" viewBox="0 0 14 10" orient="auto" markerUnits="userSpaceOnUse" stroke-dasharray="0,0"><path id="SvgjsPath1099" d="M0,0 L14,5 L0,10 L0,0" fill="#323232" stroke="#323232" stroke-width="1"></path></marker><marker id="SvgjsMarker1102" markerWidth="14" markerHeight="10" refX="10" refY="5" viewBox="0 0 14 10" orient="auto" markerUnits="userSpaceOnUse" stroke-dasharray="0,0"><path id="SvgjsPath1103" d="M0,0 L14,5 L0,10 L0,0" fill="#323232" stroke="#323232" stroke-width="1"></path></marker><marker id="SvgjsMarker1106" markerWidth="14" markerHeight="10" refX="10" refY="5" viewBox="0 0 14 10" orient="auto" markerUnits="userSpaceOnUse" stroke-dasharray="0,0"><path id="SvgjsPath1107" d="M0,0 L14,5 L0,10 L0,0" fill="#323232" stroke="#323232" stroke-width="1"></path></marker><marker id="SvgjsMarker1110" markerWidth="14" markerHeight="10" refX="10" refY="5" viewBox="0 0 14 10" orient="auto" markerUnits="userSpaceOnUse" stroke-dasharray="0,0"><path id="SvgjsPath1111" d="M0,0 L14,5 L0,10 L0,0" fill="#323232" stroke="#323232" stroke-width="1"></path></marker><marker id="SvgjsMarker1120" markerWidth="14" markerHeight="10" refX="10" refY="5" viewBox="0 0 14 10" orient="auto" markerUnits="userSpaceOnUse" stroke-dasharray="0,0"><path id="SvgjsPath1121" d="M0,0 L14,5 L0,10 L0,0" fill="#323232" stroke="#323232" stroke-width="1"></path></marker><marker id="SvgjsMarker1124" markerWidth="14" markerHeight="10" refX="4" refY="5" viewBox="0 0 14 10" orient="auto" markerUnits="userSpaceOnUse" stroke-dasharray="0,0"><path id="SvgjsPath1125" d="M14,0 L0,5 L14,10 L14,0" fill="#323232" stroke="#323232" stroke-width="1"></path></marker><marker id="SvgjsMarker1126" markerWidth="14" markerHeight="10" refX="10" refY="5" viewBox="0 0 14 10" orient="auto" markerUnits="userSpaceOnUse" stroke-dasharray="0,0"><path id="SvgjsPath1127" d="M0,0 L14,5 L0,10 L0,0" fill="#323232" stroke="#323232" stroke-width="1"></path></marker><marker id="SvgjsMarker1130" markerWidth="14" markerHeight="10" refX="4" refY="5" viewBox="0 0 14 10" orient="auto" markerUnits="userSpaceOnUse" stroke-dasharray="0,0"><path id="SvgjsPath1131" d="M14,0 L0,5 L14,10 L14,0" fill="#323232" stroke="#323232" stroke-width="1"></path></marker><marker id="SvgjsMarker1132" markerWidth="14" markerHeight="10" refX="10" refY="5" viewBox="0 0 14 10" orient="auto" markerUnits="userSpaceOnUse" stroke-dasharray="0,0"><path id="SvgjsPath1133" d="M0,0 L14,5 L0,10 L0,0" fill="#323232" stroke="#323232" stroke-width="1"></path></marker><marker id="SvgjsMarker1136" markerWidth="14" markerHeight="10" refX="4" refY="5" viewBox="0 0 14 10" orient="auto" markerUnits="userSpaceOnUse" stroke-dasharray="0,0"><path id="SvgjsPath1137" d="M14,0 L0,5 L14,10 L14,0" fill="#323232" stroke="#323232" stroke-width="1"></path></marker><marker id="SvgjsMarker1140" markerWidth="14" markerHeight="10" refX="10" refY="5" viewBox="0 0 14 10" orient="auto" markerUnits="userSpaceOnUse" stroke-dasharray="0,0"><path id="SvgjsPath1141" d="M0,0 L14,5 L0,10 L0,0" fill="#323232" stroke="#323232" stroke-width="1"></path></marker></defs><g id="SvgjsG1008" transform="translate(204.00001525878906,55.499996185302734)"><path id="SvgjsPath1009" d="M 0 4Q 0 0 4 0L 96 0Q 100 0 100 4L 100 67Q 100 71 96 71L 4 71Q 0 71 0 67Z" stroke="rgba(50,50,50,1)" stroke-width="2" fill-opacity="1" fill="#ffffff"></path><g id="SvgjsG1010"><text id="SvgjsText1011" font-family="微软雅黑" text-anchor="middle" font-size="13px" width="80px" fill="#323232" font-weight="400" align="middle" lineHeight="125%" anchor="middle" family="微软雅黑" size="13px" weight="400" font-style="" opacity="1" y="24.875" transform="rotate(0)"><tspan id="SvgjsTspan1012" dy="16" x="50"><tspan id="SvgjsTspan1013" style="text-decoration:;">Nova API</tspan></tspan></text></g></g><g id="SvgjsG1014" transform="translate(204.00001525878906,276.49999618530273)"><path id="SvgjsPath1015" d="M 0 0L 100 0L 100 71L 0 71Z" stroke="rgba(50,50,50,1)" stroke-width="2" fill-opacity="1" fill="#ffffff"></path><g id="SvgjsG1016"><text id="SvgjsText1017" font-family="微软雅黑" text-anchor="middle" font-size="13px" width="80px" fill="#323232" font-weight="400" align="middle" lineHeight="125%" anchor="middle" family="微软雅黑" size="13px" weight="400" font-style="" opacity="1" y="16.375" transform="rotate(0)"><tspan id="SvgjsTspan1018" dy="16" x="50"><tspan id="SvgjsTspan1019" style="text-decoration:;">Nova </tspan></tspan><tspan id="SvgjsTspan1020" dy="16" x="50"><tspan id="SvgjsTspan1021" style="text-decoration:;">Conductor</tspan></tspan></text></g></g><g id="SvgjsG1022" transform="translate(204.00001525878906,452.99999618530273)"><path id="SvgjsPath1023" d="M 0 0L 100 0L 100 71L 0 71Z" stroke="rgba(50,50,50,1)" stroke-width="2" fill-opacity="1" fill="#ffffff"></path><g id="SvgjsG1024"><text id="SvgjsText1025" font-family="微软雅黑" text-anchor="middle" font-size="13px" width="80px" fill="#323232" font-weight="400" align="middle" lineHeight="125%" anchor="middle" family="微软雅黑" size="13px" weight="400" font-style="" opacity="1" y="16.375" transform="rotate(0)"><tspan id="SvgjsTspan1026" dy="16" x="50"><tspan id="SvgjsTspan1027" style="text-decoration:;">Nova </tspan></tspan><tspan id="SvgjsTspan1028" dy="16" x="50"><tspan id="SvgjsTspan1029" style="text-decoration:;">compute</tspan></tspan></text></g></g><g id="SvgjsG1030" transform="translate(491.00001525878906,276.49999618530273)"><path id="SvgjsPath1031" d="M 0 0L 100 0L 100 71L 0 71Z" stroke="rgba(50,50,50,1)" stroke-width="2" fill-opacity="1" fill="#ffffff"></path><g id="SvgjsG1032"><text id="SvgjsText1033" font-family="微软雅黑" text-anchor="middle" font-size="13px" width="80px" fill="#323232" font-weight="400" align="middle" lineHeight="125%" anchor="middle" family="微软雅黑" size="13px" weight="400" font-style="" opacity="1" y="16.375" transform="rotate(0)"><tspan id="SvgjsTspan1034" dy="16" x="50"><tspan id="SvgjsTspan1035" style="text-decoration:;">Nova </tspan></tspan><tspan id="SvgjsTspan1036" dy="16" x="50"><tspan id="SvgjsTspan1037" style="text-decoration:;">Scheduler</tspan></tspan></text></g></g><g id="SvgjsG1038" transform="translate(491.00001525878906,55.499996185302734)"><path id="SvgjsPath1039" d="M 15 0L 88.16666666666667 0C 103.22727272727273 0 103.22727272727273 71 88.16666666666667 71L 15 71C -5 71 -5 0 15 0ZM 88.16666666666667 0C 73.375 0 73.375 71 88.16666666666667 71C 73.375 71 73.375 0 88.16666666666667 0" stroke="rgba(50,50,50,1)" stroke-width="2" fill-opacity="1" fill="#ffffff"></path><g id="SvgjsG1040"><text id="SvgjsText1041" font-family="微软雅黑" text-anchor="middle" font-size="13px" width="80px" fill="#323232" font-weight="400" align="middle" lineHeight="125%" anchor="middle" family="微软雅黑" size="13px" weight="400" font-style="" opacity="1" y="24.875" transform="rotate(0)"><tspan id="SvgjsTspan1042" dy="16" x="40"><tspan id="SvgjsTspan1043" style="text-decoration:;">DB</tspan></tspan></text></g></g><g id="SvgjsG1044" transform="translate(25.000015258789062,125.49999618530273)"><path id="SvgjsPath1045" d="M 16.169999999999998 0L 83.83 0L 100 38.5L 83.83 77L 16.169999999999998 77L 0 38.5L 16.169999999999998 0Z" stroke="rgba(50,50,50,1)" stroke-width="2" fill-opacity="1" fill="#ffffff"></path><g id="SvgjsG1046"><text id="SvgjsText1047" font-family="微软雅黑" text-anchor="middle" font-size="13px" width="80px" fill="#323232" font-weight="400" align="middle" lineHeight="125%" anchor="middle" family="微软雅黑" size="13px" weight="400" font-style="" opacity="1" y="27.875" transform="rotate(0)"><tspan id="SvgjsTspan1048" dy="16" x="50"><tspan id="SvgjsTspan1049" style="text-decoration:;">Keystone</tspan></tspan></text></g></g><g id="SvgjsG1050" transform="translate(28.000015258789062,329.99999618530273)"><path id="SvgjsPath1051" d="M 16.169999999999998 0L 77.83 0L 94 38.5L 77.83 77L 16.169999999999998 77L 0 38.5L 16.169999999999998 0Z" stroke="rgba(50,50,50,1)" stroke-width="2" fill-opacity="1" fill="#ffffff"></path><g id="SvgjsG1052"><text id="SvgjsText1053" font-family="微软雅黑" text-anchor="middle" font-size="13px" width="74px" fill="#323232" font-weight="400" align="middle" lineHeight="125%" anchor="middle" family="微软雅黑" size="13px" weight="400" font-style="" opacity="1" y="27.875" transform="rotate(0)"><tspan id="SvgjsTspan1054" dy="16" x="47"><tspan id="SvgjsTspan1055" style="text-decoration:;">Neutron</tspan></tspan></text></g></g><g id="SvgjsG1056" transform="translate(617.0000152587891,125.49999618530273)"><path id="SvgjsPath1057" d="M 16.169999999999998 0L 77.83 0L 94 38.5L 77.83 77L 16.169999999999998 77L 0 38.5L 16.169999999999998 0Z" stroke="rgba(50,50,50,1)" stroke-width="2" fill-opacity="1" fill="#ffffff"></path><g id="SvgjsG1058"><text id="SvgjsText1059" font-family="微软雅黑" text-anchor="middle" font-size="13px" width="74px" fill="#323232" font-weight="400" align="middle" lineHeight="125%" anchor="middle" family="微软雅黑" size="13px" weight="400" font-style="" opacity="1" y="27.875" transform="rotate(0)"><tspan id="SvgjsTspan1060" dy="16" x="47"><tspan id="SvgjsTspan1061" style="text-decoration:;">glance</tspan></tspan></text></g></g><g id="SvgjsG1062" transform="translate(617.0000152587891,390.99999618530273)"><path id="SvgjsPath1063" d="M 14.91 0L 79.09 0L 94 35.5L 79.09 71L 14.91 71L 0 35.5L 14.91 0Z" stroke="rgba(50,50,50,1)" stroke-width="2" fill-opacity="1" fill="#ffffff"></path><g id="SvgjsG1064"><text id="SvgjsText1065" font-family="微软雅黑" text-anchor="middle" font-size="13px" width="74px" fill="#323232" font-weight="400" align="middle" lineHeight="125%" anchor="middle" family="微软雅黑" size="13px" weight="400" font-style="" opacity="1" y="24.875" transform="rotate(0)"><tspan id="SvgjsTspan1066" dy="16" x="47"><tspan id="SvgjsTspan1067" style="text-decoration:;">Placement</tspan></tspan></text></g></g><g id="SvgjsG1068"><path id="SvgjsPath1069" d="M305.00001525878906 90.99999618530273L397.50001525878906 90.99999618530273L397.50001525878906 90.99999618530273L487.40001525878904 90.99999618530273" stroke-dasharray="3,3" stroke="#323232" stroke-width="2" fill="none" marker-end="url(#SvgjsMarker1070)"></path></g><g id="SvgjsG1072"><path id="SvgjsPath1073" d="M541.0000152587891 275.49999618530273L541.0000152587891 200.49999618530273L541.0000152587891 200.49999618530273L541.0000152587891 130.09999618530276" stroke-dasharray="3,3" stroke="#323232" stroke-width="2" fill="none" marker-end="url(#SvgjsMarker1074)"></path></g><g id="SvgjsG1076"><path id="SvgjsPath1077" d="M203.00001525878906 90.99999618530273L75.00001525878906 90.99999618530273L75.00001525878906 121.89999618530271" stroke-dasharray="10,5,3,5" stroke="#323232" stroke-width="2" fill="none" marker-end="url(#SvgjsMarker1078)"></path></g><g id="SvgjsG1080"><path id="SvgjsPath1081" d="M205.52095979178983 127.49999618530273L205.52095979178983 227.02278455578443L75.00001525878906 227.02278455578443L75.00001525878906 326.3999961853027" stroke-dasharray="10,5,3,5" stroke="#323232" stroke-width="2" fill="none" marker-end="url(#SvgjsMarker1082)"></path></g><g id="SvgjsG1084"><path id="SvgjsPath1085" d="M254.00001525878906 54.499996185302734L254.00001525878906 24.999996185302734L664.0000152587891 24.999996185302734L664.0000152587891 121.89999618530271" stroke-dasharray="10,5,3,5" stroke="#323232" stroke-width="2" fill="none" marker-end="url(#SvgjsMarker1086)"></path></g><g id="SvgjsG1088"><path id="SvgjsPath1089" d="M278.00001525878906 127.49999618530273L278.00001525878906 257.99999618530273L664.0000152587891 257.99999618530273L664.0000152587891 387.3999961853027" stroke-dasharray="10,5,3,5" stroke="#323232" stroke-width="2" fill="none" marker-end="url(#SvgjsMarker1090)"></path></g><g id="SvgjsG1092"><path id="SvgjsPath1093" d="M541.0000152587891 348.49999618530273L541.0000152587891 369.6213165288624L630.2426559459084 369.6213165288624L630.2426559459084 389.64263687242203" stroke-dasharray="10,5,3,5" stroke="#323232" stroke-width="2" fill="none" marker-end="url(#SvgjsMarker1094)"></path></g><g id="SvgjsG1096"><path id="SvgjsPath1097" d="M203.00001525878906 488.49999618530273L163.00001525878906 488.49999618530273L163.00001525878906 368.49999618530273L125.60001525878909 368.49999618530273" stroke-dasharray="10,5,3,5" stroke="#323232" stroke-width="2" fill="none" marker-end="url(#SvgjsMarker1098)"></path></g><g id="SvgjsG1100"><path id="SvgjsPath1101" d="M303.00001525878906 456.99999618530273L459.50001525878906 456.99999618530273L459.50001525878906 163.99999618530273L613.400015258789 163.99999618530273" stroke-dasharray="10,5,3,5" stroke="#323232" stroke-width="2" fill="none" marker-end="url(#SvgjsMarker1102)"></path></g><g id="SvgjsG1104"><path id="SvgjsPath1105" d="M305.00001525878906 508.49999618530273L664.0000152587891 508.49999618530273L664.0000152587891 465.59999618530276" stroke-dasharray="10,5,3,5" stroke="#323232" stroke-width="2" fill="none" marker-end="url(#SvgjsMarker1106)"></path></g><g id="SvgjsG1108"><path id="SvgjsPath1109" d="M75.00001525878906 407.99999618530273L75.00001525878906 426.49999618530273L613.400015258789 426.49999618530273" stroke-dasharray="10,5,3,5" stroke="#323232" stroke-width="2" fill="none" marker-end="url(#SvgjsMarker1110)"></path></g><g id="SvgjsG1112" transform="translate(366.6000061035156,329.99999618530273)"><path id="SvgjsPath1113" d="M 0 35C 0 -11.666666666666666 70 -11.666666666666666 70 35C 70 81.66666666666667 0 81.66666666666667 0 35Z" stroke="rgba(50,50,50,1)" stroke-width="2" fill-opacity="1" fill="#ffffff"></path><g id="SvgjsG1114"><text id="SvgjsText1115" font-family="微软雅黑" text-anchor="middle" font-size="13px" width="50px" fill="#323232" font-weight="400" align="middle" lineHeight="125%" anchor="middle" family="微软雅黑" size="13px" weight="400" font-style="" opacity="1" y="24.375" transform="rotate(0)"><tspan id="SvgjsTspan1116" dy="16" x="35"><tspan id="SvgjsTspan1117" style="text-decoration:;">mq</tspan></tspan></text></g></g><g id="SvgjsG1118"><path id="SvgjsPath1119" d="M254.00001525878906 127.49999618530273L254.00001525878906 228.24999618530273L401.6000061035156 228.24999618530273L401.6000061035156 326.3999961853027" stroke="#323232" stroke-width="2" fill="none" marker-end="url(#SvgjsMarker1120)"></path></g><g id="SvgjsG1122"><path id="SvgjsPath1123" d="M307.6000152587891 488.49999618530273L401.6000061035156 488.49999618530273L401.6000061035156 403.59999618530276" stroke="#323232" stroke-width="2" fill="none" marker-start="url(#SvgjsMarker1124)" marker-end="url(#SvgjsMarker1126)"></path></g><g id="SvgjsG1128"><path id="SvgjsPath1129" d="M254.00001525878906 351.09999618530276L254.00001525878906 364.99999618530273L363.0000061035156 364.99999618530273" stroke="#323232" stroke-width="2" fill="none" marker-start="url(#SvgjsMarker1130)" marker-end="url(#SvgjsMarker1132)"></path></g><g id="SvgjsG1134"><path id="SvgjsPath1135" d="M487.40001525878904 311.99999618530273L463.80001068115234 311.99999618530273L463.80001068115234 364.99999618530273L437.6000061035156 364.99999618530273" stroke="#323232" stroke-width="2" fill="none" marker-start="url(#SvgjsMarker1136)"></path></g><g id="SvgjsG1138"><path id="SvgjsPath1139" d="M305.00001525878906 311.99999618530273L397.50001525878906 311.99999618530273L397.50001525878906 90.99999618530273L487.40001525878904 90.99999618530273" stroke-dasharray="3,3" stroke="#323232" stroke-width="2" fill="none" marker-end="url(#SvgjsMarker1140)"></path></g></svg>