<svg id="SvgjsSvg1006" width="1284.8541870117188" height="842.8958435058594" xmlns="http://www.w3.org/2000/svg" version="1.1" xmlns:xlink="http://www.w3.org/1999/xlink" xmlns:svgjs="http://svgjs.com/svgjs"><defs id="SvgjsDefs1007"><marker id="SvgjsMarker1039" markerWidth="14" markerHeight="10" refX="10" refY="5" viewBox="0 0 14 10" orient="auto" markerUnits="userSpaceOnUse" stroke-dasharray="0,0"><path id="SvgjsPath1040" d="M0,0 L14,5 L0,10 L0,0" fill="#000000" stroke="#000000" stroke-width="1"></path></marker><marker id="SvgjsMarker1074" markerWidth="14" markerHeight="10" refX="10" refY="5" viewBox="0 0 14 10" orient="auto" markerUnits="userSpaceOnUse" stroke-dasharray="0,0"><path id="SvgjsPath1075" d="M0,0 L14,5 L0,10 L0,0" fill="#323232" stroke="#323232" stroke-width="1"></path></marker><marker id="SvgjsMarker1094" markerWidth="14" markerHeight="10" refX="10" refY="5" viewBox="0 0 14 10" orient="auto" markerUnits="userSpaceOnUse" stroke-dasharray="0,0"><path id="SvgjsPath1095" d="M0,0 L14,5 L0,10 L0,0" fill="#323232" stroke="#323232" stroke-width="1"></path></marker><marker id="SvgjsMarker1108" markerWidth="16" markerHeight="16" refX="11" refY="8" viewBox="0 0 16 16" orient="auto" markerUnits="userSpaceOnUse" stroke-dasharray="0,0"><path id="SvgjsPath1109" d="M0,0 L10,8 L0,16" fill="none" stroke="#323232" stroke-width="2"></path></marker><marker id="SvgjsMarker1122" markerWidth="14" markerHeight="10" refX="10" refY="5" viewBox="0 0 14 10" orient="auto" markerUnits="userSpaceOnUse" stroke-dasharray="0,0"><path id="SvgjsPath1123" d="M0,0 L14,5 L0,10 L0,0" fill="#323232" stroke="#323232" stroke-width="1"></path></marker><marker id="SvgjsMarker1134" markerWidth="14" markerHeight="10" refX="10" refY="5" viewBox="0 0 14 10" orient="auto" markerUnits="userSpaceOnUse" stroke-dasharray="0,0"><path id="SvgjsPath1135" d="M0,0 L14,5 L0,10 L0,0" fill="#323232" stroke="#323232" stroke-width="1"></path></marker><marker id="SvgjsMarker1144" markerWidth="14" markerHeight="10" refX="10" refY="5" viewBox="0 0 14 10" orient="auto" markerUnits="userSpaceOnUse" stroke-dasharray="0,0"><path id="SvgjsPath1145" d="M0,0 L14,5 L0,10 L0,0" fill="#323232" stroke="#323232" stroke-width="1"></path></marker><marker id="SvgjsMarker1156" markerWidth="16" markerHeight="16" refX="11" refY="8" viewBox="0 0 16 16" orient="auto" markerUnits="userSpaceOnUse" stroke-dasharray="0,0"><path id="SvgjsPath1157" d="M0,0 L10,8 L0,16" fill="none" stroke="#323232" stroke-width="2"></path></marker><marker id="SvgjsMarker1168" markerWidth="14" markerHeight="10" refX="10" refY="5" viewBox="0 0 14 10" orient="auto" markerUnits="userSpaceOnUse" stroke-dasharray="0,0"><path id="SvgjsPath1169" d="M0,0 L14,5 L0,10 L0,0" fill="#323232" stroke="#323232" stroke-width="1"></path></marker><marker id="SvgjsMarker1184" markerWidth="16" markerHeight="16" refX="11" refY="8" viewBox="0 0 16 16" orient="auto" markerUnits="userSpaceOnUse" stroke-dasharray="0,0"><path id="SvgjsPath1185" d="M0,0 L10,8 L0,16" fill="none" stroke="#323232" stroke-width="2"></path></marker><marker id="SvgjsMarker1198" markerWidth="14" markerHeight="10" refX="10" refY="5" viewBox="0 0 14 10" orient="auto" markerUnits="userSpaceOnUse" stroke-dasharray="0,0"><path id="SvgjsPath1199" d="M0,0 L14,5 L0,10 L0,0" fill="#323232" stroke="#323232" stroke-width="1"></path></marker></defs><g id="SvgjsG1008"><path id="SvgjsPath1009" d="M588.6062507629395 667.8000183105469L588.6062507629395 740.3000183105469L588.6062507629395 740.3000183105469L588.6062507629395 812.8000183105469" stroke-dasharray="3,3" stroke="#323232" stroke-width="2" fill="none"></path></g><g id="SvgjsG1010"><path id="SvgjsPath1011" d="M1085.6062507629395 670.8000183105469L1085.6062507629395 743.3000183105469L1085.6062507629395 743.3000183105469L1085.6062507629395 815.8000183105469" stroke-dasharray="3,3" stroke="#323232" stroke-width="2" fill="none"></path></g><g id="SvgjsG1012"><path id="SvgjsPath1013" d="M835.6062507629395 658.8000183105469L835.6062507629395 731.3000183105469L835.6062507629395 731.3000183105469L835.6062507629395 803.8000183105469" stroke-dasharray="3,3" stroke="#323232" stroke-width="2" fill="none"></path></g><g id="SvgjsG1014" transform="translate(267.4050736079661,114.195349164238)"><path id="SvgjsPath1015" d="M 60.739647625624364 30L 60.739647625624364 554.804650835762" stroke-dasharray="3,4" stroke="rgba(0,0,0,1)" stroke-width="2" fill="none"></path><path id="SvgjsPath1016" d="M 0 0L 121.47929525124873 0L 121.47929525124873 30L 0 30Z" stroke="rgba(0,0,0,1)" stroke-width="2" fill-opacity="1" fill="#ffffcc"></path><g id="SvgjsG1017"><text id="SvgjsText1018" font-family="微软雅黑" text-anchor="middle" font-size="13px" width="102px" fill="#323232" font-weight="700" align="middle" lineHeight="125%" anchor="middle" family="微软雅黑" size="13px" weight="700" font-style="" opacity="1" y="4.375" transform="rotate(0)"><tspan id="SvgjsTspan1019" dy="16" x="61"><tspan id="SvgjsTspan1020" style="text-decoration:;">nova-api</tspan></tspan></text></g></g><g id="SvgjsG1021" transform="translate(530.7417313208746,114.19534916423794)"><path id="SvgjsPath1022" d="M 57.8285006459738 30L 57.8285006459738 554.8046508357621" stroke-dasharray="3,4" stroke="rgba(0,0,0,1)" stroke-width="2" fill="none"></path><path id="SvgjsPath1023" d="M 0 0L 115.6570012919476 0L 115.6570012919476 30L 0 30Z" stroke="rgba(0,0,0,1)" stroke-width="2" fill-opacity="1" fill="#ffffcc"></path><g id="SvgjsG1024"><text id="SvgjsText1025" font-family="微软雅黑" text-anchor="middle" font-size="13px" width="96px" fill="#323232" font-weight="700" align="middle" lineHeight="125%" anchor="middle" family="微软雅黑" size="13px" weight="700" font-style="" opacity="1" y="4.375" transform="rotate(0)"><tspan id="SvgjsTspan1026" dy="16" x="58"><tspan id="SvgjsTspan1027" style="text-decoration:;">nova-compute</tspan></tspan></text></g></g><g id="SvgjsG1028" transform="translate(778.6751133429535,114.19534916423794)"><path id="SvgjsPath1029" d="M 57.27368362373741 30L 57.27368362373741 541.7403022587707" stroke-dasharray="3,4" stroke="rgba(0,0,0,1)" stroke-width="2" fill="none"></path><path id="SvgjsPath1030" d="M 0 0L 114.54736724747482 0L 114.54736724747482 30L 0 30Z" stroke="rgba(0,0,0,1)" stroke-width="2" fill-opacity="1" fill="#ffffcc"></path><g id="SvgjsG1031"><text id="SvgjsText1032" font-family="微软雅黑" text-anchor="middle" font-size="13px" width="95px" fill="#323232" font-weight="700" align="middle" lineHeight="125%" anchor="middle" family="微软雅黑" size="13px" weight="700" font-style="" opacity="1" y="-4.125" transform="rotate(0)"><tspan id="SvgjsTspan1033" dy="16" x="57.5"><tspan id="SvgjsTspan1034" style="text-decoration:;">nova-</tspan></tspan><tspan id="SvgjsTspan1035" dy="16" x="57.5"><tspan id="SvgjsTspan1036" style="text-decoration:;">conductor</tspan></tspan></text></g></g><g id="SvgjsG1037"><path id="SvgjsPath1038" d="M106.00624084472658 202.79999923706055L206.8981209718758 202.79999923706055L206.8981209718758 202.79999923706055L308.79000109902506 202.79999923706055" stroke="#000000" stroke-width="2" fill="none" marker-end="url(#SvgjsMarker1039)"></path></g><g id="SvgjsG1041" transform="translate(61.65773307523972,25)"><path id="SvgjsPath1042" d="M 16.058770263407503 7.853277440911391C 16.058770263407503 -2.6177591469704637 32.117540526815006 -2.6177591469704637 32.117540526815006 7.853277440911391C 32.117540526815006 18.324314028793246 16.058770263407503 18.324314028793246 16.058770263407503 7.853277440911391M 24.088155395111254 15.706554881822782L 24.088155395111254 47.11966464546835M 24.088155395111254 47.11966464546835L 4.014692565851876 62.82621952729113M 24.088155395111254 47.11966464546835L 44.16161822437063 62.82621952729113M 0 31.413109763645565L 48.17631079022251 31.413109763645565" stroke="rgba(50,50,50,1)" stroke-width="2" fill-opacity="1" fill="#ffffff"></path><path id="SvgjsPath1043" d="M 0 0L 48.17631079022251 0L 48.17631079022251 62.82621952729113L 0 62.82621952729113Z" stroke="none" fill="none"></path><g id="SvgjsG1044"><text id="SvgjsText1045" font-family="微软雅黑" text-anchor="middle" font-size="13px" width="89px" fill="#323232" font-weight="400" align="middle" lineHeight="125%" anchor="middle" family="微软雅黑" size="13px" weight="400" font-style="" opacity="1" y="67.20121952729113" transform="rotate(0)"></text></g></g><g id="SvgjsG1046" transform="translate(25.006240844726562,114.195349164238)"><path id="SvgjsPath1047" d="M 60.739647625624364 30L 60.739647625624364 554.804650835762" stroke-dasharray="3,4" stroke="rgba(0,0,0,1)" stroke-width="2" fill="none"></path><path id="SvgjsPath1048" d="M 0 0L 121.47929525124873 0L 121.47929525124873 30L 0 30Z" stroke="rgba(0,0,0,1)" stroke-width="2" fill-opacity="1" fill="#ffffff"></path><g id="SvgjsG1049"><text id="SvgjsText1050" font-family="微软雅黑" text-anchor="middle" font-size="13px" width="102px" fill="#323232" font-weight="700" align="middle" lineHeight="125%" anchor="middle" family="微软雅黑" size="13px" weight="700" font-style="" opacity="1" y="4.375" transform="rotate(0)"><tspan id="SvgjsTspan1051" dy="16" x="61"><tspan id="SvgjsTspan1052" style="text-decoration:;">user</tspan></tspan></text></g></g><g id="SvgjsG1053" transform="translate(66.12083372254021,190.89686045809208)"><path id="SvgjsPath1054" d="M 0 4Q 0 0 4 0L 35.25010949562152 0Q 39.25010949562152 0 39.25010949562152 4L 39.25010949562152 161.3031364901501Q 39.25010949562152 165.3031364901501 35.25010949562152 165.3031364901501L 4 165.3031364901501Q 0 165.3031364901501 0 161.3031364901501L 0 4Z" stroke="rgba(153,0,0,1)" stroke-width="2" fill-opacity="1" fill="#ffffff"></path></g><g id="SvgjsG1055" transform="translate(1025.4988613205596,114.19534916423794)"><path id="SvgjsPath1056" d="M 60.739647625624364 30L 60.739647625624364 554.804650835762" stroke-dasharray="3,4" stroke="rgba(0,0,0,1)" stroke-width="2" fill="none"></path><path id="SvgjsPath1057" d="M 0 0L 121.47929525124873 0L 121.47929525124873 30L 0 30Z" stroke="rgba(0,0,0,1)" stroke-width="2" fill-opacity="1" fill="#ffffcc"></path><g id="SvgjsG1058"><text id="SvgjsText1059" font-family="微软雅黑" text-anchor="middle" font-size="13px" width="102px" fill="#323232" font-weight="700" align="middle" lineHeight="125%" anchor="middle" family="微软雅黑" size="13px" weight="700" font-style="" opacity="1" y="4.375" transform="rotate(0)"><tspan id="SvgjsTspan1060" dy="16" x="61"><tspan id="SvgjsTspan1061" style="text-decoration:;">nova-scheduler</tspan></tspan></text></g></g><g id="SvgjsG1062" transform="translate(1064.2662983408445,197.89686045809208)"><path id="SvgjsPath1063" d="M 0 4Q 0 0 4 0L 35.25010949562152 0Q 39.25010949562152 0 39.25010949562152 4L 39.25010949562152 609.3031517489392Q 39.25010949562152 613.3031517489392 35.25010949562152 613.3031517489392L 4 613.3031517489392Q 0 613.3031517489392 0 609.3031517489392L 0 4Z" stroke="rgba(153,0,0,1)" stroke-width="2" fill-opacity="1" fill="#ffffff"></path></g><g id="SvgjsG1064" transform="translate(109.83404386546223,201.1928516325558)"><path id="SvgjsPath1065" d="M 0 0L 176 0L 176 55L 0 55Z" stroke="none" fill="none"></path><g id="SvgjsG1066"><text id="SvgjsText1067" font-family="微软雅黑" text-anchor="middle" font-size="13px" width="176px" fill="#323232" font-weight="400" align="middle" lineHeight="125%" anchor="middle" family="微软雅黑" size="13px" weight="400" font-style="" opacity="1" y="8.375" transform="rotate(0)"><tspan id="SvgjsTspan1068" dy="16" x="88"><tspan id="SvgjsTspan1069" style="text-decoration:;">用户使用Horizon或CLI发起一</tspan></tspan><tspan id="SvgjsTspan1070" dy="16" x="88"><tspan id="SvgjsTspan1071" style="text-decoration:;">个创建虚机的命令</tspan></tspan></text></g></g><g id="SvgjsG1072"><path id="SvgjsPath1073" d="M349.00624084472656 221.31512132648714L378.00624084472656 221.31512132648714L378.00624084472656 295.5361606483124L351.6062408447266 295.5361606483124" stroke="#323232" stroke-width="2" fill="none" marker-end="url(#SvgjsMarker1074)"></path></g><g id="SvgjsG1076" transform="translate(388.25172196714414,246.8002175866477)"><path id="SvgjsPath1077" d="M 0 0L 129.50903775516485 0L 129.50903775516485 38.80000305175781L 0 38.80000305175781Z" stroke="none" fill="none"></path><g id="SvgjsG1078"><text id="SvgjsText1079" font-family="微软雅黑" text-anchor="start" font-size="13px" width="130px" fill="#323232" font-weight="400" align="middle" lineHeight="125%" anchor="start" family="微软雅黑" size="13px" weight="400" font-style="" opacity="1" y="-32.224998474121094" transform="rotate(0)"><tspan id="SvgjsTspan1080" dy="16" x="0"><tspan id="SvgjsTspan1081" style="text-decoration:;">1.调用create()方法2.</tspan></tspan><tspan id="SvgjsTspan1082" dy="16" x="0"><tspan id="SvgjsTspan1083" style="text-decoration:;">验证用户身份和权限</tspan></tspan><tspan id="SvgjsTspan1084" dy="16" x="0"><tspan id="SvgjsTspan1085" style="text-decoration:;">3.处理入参</tspan></tspan><tspan id="SvgjsTspan1086" dy="16" x="0"><tspan id="SvgjsTspan1087" style="text-decoration:;">4.获取网络和flavor_id</tspan></tspan><tspan id="SvgjsTspan1088" dy="16" x="0"><tspan id="SvgjsTspan1089" style="text-decoration:;">等参数</tspan></tspan><tspan id="SvgjsTspan1090" dy="16" x="0"><tspan id="SvgjsTspan1091" style="text-decoration:;"> </tspan></tspan></text></g></g><g id="SvgjsG1092"><path id="SvgjsPath1093" d="M608.0062408447266 336.85346386116044L637.0062408447266 336.85346386116044L637.0062408447266 381.269560579123L610.6062408447266 381.269560579123" stroke="#323232" stroke-width="2" fill="none" marker-end="url(#SvgjsMarker1094)"></path></g><g id="SvgjsG1096" transform="translate(644.3797042113879,340.46572016908937)"><path id="SvgjsPath1097" d="M 0 0L 170.60750823190438 0L 170.60750823190438 33.19956024906787L 0 33.19956024906787Z" stroke="none" fill="none"></path><g id="SvgjsG1098"><text id="SvgjsText1099" font-family="微软雅黑" text-anchor="start" font-size="13px" width="171px" fill="#323232" font-weight="400" align="middle" lineHeight="125%" anchor="start" family="微软雅黑" size="13px" weight="400" font-style="" opacity="1" y="-10.525219875466064" transform="rotate(0)"><tspan id="SvgjsTspan1100" dy="16" x="0"><tspan id="SvgjsTspan1101" style="text-decoration:;">1.参数校验</tspan></tspan><tspan id="SvgjsTspan1102" dy="16" x="0"><tspan id="SvgjsTspan1103" style="text-decoration:;">2.获取image，虚机等信息。</tspan></tspan><tspan id="SvgjsTspan1104" dy="16" x="0"><tspan id="SvgjsTspan1105" style="text-decoration:;">3.构造调度时使用的过滤器</tspan></tspan></text></g></g><g id="SvgjsG1106"><path id="SvgjsPath1107" d="M607.8062438964844 409L711.3062438964844 409L711.3062438964844 409L813.8062438964844 409" stroke="#323232" stroke-width="2" fill="none" marker-end="url(#SvgjsMarker1108)"></path></g><g id="SvgjsG1110" transform="translate(608.9872124432923,419.20000076293945)"><path id="SvgjsPath1111" d="M 0 0L 206 0L 206 38L 0 38Z" stroke="none" fill="none"></path><g id="SvgjsG1112"><text id="SvgjsText1113" font-family="微软雅黑" text-anchor="middle" font-size="13px" width="206px" fill="#323232" font-weight="400" align="middle" lineHeight="125%" anchor="middle" family="微软雅黑" size="13px" weight="400" font-style="" opacity="1" y="-8.125" transform="rotate(0)"><tspan id="SvgjsTspan1114" dy="16" x="103"><tspan id="SvgjsTspan1115" style="text-decoration:;">通过RPC异步地调用nova-</tspan></tspan><tspan id="SvgjsTspan1116" dy="16" x="103"><tspan id="SvgjsTspan1117" style="text-decoration:;">conductor中的</tspan></tspan><tspan id="SvgjsTspan1118" dy="16" x="103"><tspan id="SvgjsTspan1119" style="text-decoration:;">schedule_and_build_instances</tspan></tspan></text></g></g><g id="SvgjsG1120"><path id="SvgjsPath1121" d="M348.8062438964844 324.20000076293945L458.0937149967001 324.20000076293945L458.0937149967001 324.20000076293945L568.3811860969158 324.20000076293945" stroke="#323232" stroke-width="2" fill="none" marker-end="url(#SvgjsMarker1122)"></path></g><g id="SvgjsG1124" transform="translate(369.21064834578124,329.66528041815724)"><path id="SvgjsPath1125" d="M 0 0L 178 0L 178 40L 0 40Z" stroke="none" fill="none"></path><g id="SvgjsG1126"><text id="SvgjsText1127" font-family="微软雅黑" text-anchor="middle" font-size="13px" width="178px" fill="#323232" font-weight="400" align="middle" lineHeight="125%" anchor="middle" family="微软雅黑" size="13px" weight="400" font-style="" opacity="1" y="0.875" transform="rotate(0)"><tspan id="SvgjsTspan1128" dy="16" x="89"><tspan id="SvgjsTspan1129" style="text-decoration:;">直接调用compute/api中</tspan></tspan><tspan id="SvgjsTspan1130" dy="16" x="89"><tspan id="SvgjsTspan1131" style="text-decoration:;">create方法</tspan></tspan></text></g></g><g id="SvgjsG1132"><path id="SvgjsPath1133" d="M854.8062438964844 429L959.3062438964844 429L959.3062438964844 429L1061.2062438964845 429" stroke="#323232" stroke-width="2" fill="none" marker-end="url(#SvgjsMarker1134)"></path></g><g id="SvgjsG1136" transform="translate(885.8606709554941,424)"><path id="SvgjsPath1137" d="M 0 0L 147 0L 147 39L 0 39Z" stroke="none" fill="none"></path><g id="SvgjsG1138"><text id="SvgjsText1139" font-family="微软雅黑" text-anchor="middle" font-size="13px" width="147px" fill="#323232" font-weight="400" align="middle" lineHeight="125%" anchor="middle" family="微软雅黑" size="13px" weight="400" font-style="" opacity="1" y="8.875" transform="rotate(0)"><tspan id="SvgjsTspan1140" dy="16" x="73.5"><tspan id="SvgjsTspan1141" style="text-decoration:;">_schedule_instances</tspan></tspan></text></g></g><g id="SvgjsG1142"><path id="SvgjsPath1143" d="M1104.0310098695531 437L1133.0310098695531 437L1133.0310098695531 473L1106.631009869553 473" stroke="#323232" stroke-width="2" fill="none" marker-end="url(#SvgjsMarker1144)"></path></g><g id="SvgjsG1146" transform="translate(1139.8577782169932,436.5)"><path id="SvgjsPath1147" d="M 0 0L 120 0L 120 40L 0 40Z" stroke="none" fill="none"></path><g id="SvgjsG1148"><text id="SvgjsText1149" font-family="微软雅黑" text-anchor="start" font-size="13px" width="120px" fill="#323232" font-weight="400" align="middle" lineHeight="125%" anchor="start" family="微软雅黑" size="13px" weight="400" font-style="" opacity="1" y="0.875" transform="rotate(0)"><tspan id="SvgjsTspan1150" dy="16" x="0"><tspan id="SvgjsTspan1151" style="text-decoration:;">1.过滤</tspan></tspan><tspan id="SvgjsTspan1152" dy="16" x="0"><tspan id="SvgjsTspan1153" style="text-decoration:;">2.按权重排名</tspan></tspan></text></g></g><g id="SvgjsG1154"><path id="SvgjsPath1155" d="M1063.8062438964844 512.1999969482422L959.3062438964844 512.1999969482422L959.3062438964844 512.1999969482422L855.8062438964844 512.1999969482422" stroke-dasharray="3,3" stroke="#323232" stroke-width="2" fill="none" marker-end="url(#SvgjsMarker1156)"></path></g><g id="SvgjsG1158" transform="translate(899.3606709554942,517)"><path id="SvgjsPath1159" d="M 0 0L 120 0L 120 40L 0 40Z" stroke="none" fill="none"></path><g id="SvgjsG1160"><text id="SvgjsText1161" font-family="微软雅黑" text-anchor="middle" font-size="13px" width="120px" fill="#323232" font-weight="400" align="middle" lineHeight="125%" anchor="middle" family="微软雅黑" size="13px" weight="400" font-style="" opacity="1" y="0.875" transform="rotate(0)"><tspan id="SvgjsTspan1162" dy="16" x="60"><tspan id="SvgjsTspan1163" style="text-decoration:;">返回调度后得到的虚</tspan></tspan><tspan id="SvgjsTspan1164" dy="16" x="60"><tspan id="SvgjsTspan1165" style="text-decoration:;">机的Host_id</tspan></tspan></text></g></g><g id="SvgjsG1166"><path id="SvgjsPath1167" d="M854.6062507629395 578.3769156211802L883.6062507629395 578.3769156211802L883.6062507629395 610.8952994964177L857.2062507629395 610.8952994964177" stroke="#323232" stroke-width="2" fill="none" marker-end="url(#SvgjsMarker1168)"></path></g><g id="SvgjsG1170" transform="translate(892.4249279603173,576.9356514230087)"><path id="SvgjsPath1171" d="M 0 0L 120 0L 120 40L 0 40Z" stroke="none" fill="none"></path><g id="SvgjsG1172"><text id="SvgjsText1173" font-family="微软雅黑" text-anchor="middle" font-size="13px" width="120px" fill="#323232" font-weight="400" align="middle" lineHeight="125%" anchor="middle" family="微软雅黑" size="13px" weight="400" font-style="" opacity="1" y="-15.125" transform="rotate(0)"><tspan id="SvgjsTspan1174" dy="16" x="60"><tspan id="SvgjsTspan1175" style="text-decoration:;">根据Host获取对应</tspan></tspan><tspan id="SvgjsTspan1176" dy="16" x="60"><tspan id="SvgjsTspan1177" style="text-decoration:;">的cell信息，构造虚</tspan></tspan><tspan id="SvgjsTspan1178" dy="16" x="60"><tspan id="SvgjsTspan1179" style="text-decoration:;">机对象并添加到数据</tspan></tspan><tspan id="SvgjsTspan1180" dy="16" x="60"><tspan id="SvgjsTspan1181" style="text-decoration:;">库中</tspan></tspan></text></g></g><g id="SvgjsG1182"><path id="SvgjsPath1183" d="M814.9872124432923 622.1999969482422L710.8967281698883 622.1999969482422L710.8967281698883 622.1999969482422L608.8062438964844 622.1999969482422" stroke="#323232" stroke-width="2" fill="none" marker-end="url(#SvgjsMarker1184)"></path></g><g id="SvgjsG1186" transform="translate(620.5872223615052,632.9999923706055)"><path id="SvgjsPath1187" d="M 0 0L 186.3999900817871 0L 186.3999900817871 36.00000762939453L 0 36.00000762939453Z" stroke="none" fill="none"></path><g id="SvgjsG1188"><text id="SvgjsText1189" font-family="微软雅黑" text-anchor="middle" font-size="13px" width="187px" fill="#323232" font-weight="400" align="middle" lineHeight="125%" anchor="middle" family="微软雅黑" size="13px" weight="400" font-style="" opacity="1" y="-9.124996185302734" transform="rotate(0)"><tspan id="SvgjsTspan1190" dy="16" x="93.5"><tspan id="SvgjsTspan1191" style="text-decoration:;">通过RPC异步地调用nova-</tspan></tspan><tspan id="SvgjsTspan1192" dy="16" x="93.5"><tspan id="SvgjsTspan1193" style="text-decoration:;">compute中的</tspan></tspan><tspan id="SvgjsTspan1194" dy="16" x="93.5"><tspan id="SvgjsTspan1195" style="text-decoration:;">build_and_run_instance方法</tspan></tspan></text></g></g><g id="SvgjsG1196"><path id="SvgjsPath1197" d="M608.0062408447266 704.5774234462933L637.0062408447266 704.5774234462933L637.0062408447266 754.1581825733213L610.6062408447266 754.1581825733213" stroke="#323232" stroke-width="2" fill="none" marker-end="url(#SvgjsMarker1198)"></path></g><g id="SvgjsG1200" transform="translate(646.3987326128222,703.6000213623047)"><path id="SvgjsPath1201" d="M 0 0L 160.58847983047008 0L 160.58847983047008 40.19999694824219L 0 40.19999694824219Z" stroke="none" fill="none"></path><g id="SvgjsG1202"><text id="SvgjsText1203" font-family="微软雅黑" text-anchor="start" font-size="13px" width="161px" fill="#323232" font-weight="400" align="middle" lineHeight="125%" anchor="start" family="微软雅黑" size="13px" weight="400" font-style="" opacity="1" y="-7.025001525878906" transform="rotate(0)"><tspan id="SvgjsTspan1204" dy="16" x="0"><tspan id="SvgjsTspan1205" style="text-decoration:;">1.更新和保存虚机状态</tspan></tspan><tspan id="SvgjsTspan1206" dy="16" x="0"><tspan id="SvgjsTspan1207" style="text-decoration:;">2.调用driver.py中的spawn</tspan></tspan><tspan id="SvgjsTspan1208" dy="16" x="0"><tspan id="SvgjsTspan1209" style="text-decoration:;">方法创建虚机</tspan></tspan></text></g></g><g id="SvgjsG1210" transform="translate(814.9872124432923,190.89686045809208)"><path id="SvgjsPath1211" d="M 0 4Q 0 0 4 0L 35.25010949562152 0Q 39.25010949562152 0 39.25010949562152 4L 39.25010949562152 623.3031517489392Q 39.25010949562152 627.3031517489392 35.25010949562152 627.3031517489392L 4 627.3031517489392Q 0 627.3031517489392 0 623.3031517489392L 0 4Z" stroke="rgba(153,0,0,1)" stroke-width="2" fill-opacity="1" fill="#ffffff"></path></g><g id="SvgjsG1212"><path id="SvgjsPath1213" d="M85.80624389648438 808.2000122070312L85.80624389648438 739.1000061035156L85.80624389648438 739.1000061035156L85.80624389648438 670" stroke-dasharray="3,3" stroke="#323232" stroke-width="2" fill="none"></path></g><g id="SvgjsG1214"><path id="SvgjsPath1215" d="M327.60625076293945 669.8000183105469L327.60625076293945 742.3000183105469L327.60625076293945 742.3000183105469L327.60625076293945 814.8000183105469" stroke-dasharray="3,3" stroke="#323232" stroke-width="2" fill="none"></path></g><g id="SvgjsG1216" transform="translate(308.79000109902506,190.89686045809208)"><path id="SvgjsPath1217" d="M 0 4Q 0 0 4 0L 35.25010949562152 0Q 39.25010949562152 0 39.25010949562152 4L 39.25010949562152 623.3031517489392Q 39.25010949562152 627.3031517489392 35.25010949562152 627.3031517489392L 4 627.3031517489392Q 0 627.3031517489392 0 623.3031517489392L 0 4Z" stroke="rgba(153,0,0,1)" stroke-width="2" fill-opacity="1" fill="#ffffff"></path></g><g id="SvgjsG1218" transform="translate(568.3811860969158,190.89686045809208)"><path id="SvgjsPath1219" d="M 0 4Q 0 0 4 0L 35.25010949562152 0Q 39.25010949562152 0 39.25010949562152 4L 39.25010949562152 623.3031517489392Q 39.25010949562152 627.3031517489392 35.25010949562152 627.3031517489392L 4 627.3031517489392Q 0 627.3031517489392 0 623.3031517489392L 0 4Z" stroke="rgba(153,0,0,1)" stroke-width="2" fill-opacity="1" fill="#ffffff"></path></g></svg>